<svg id="Layer_3" data-name="Layer 3" xmlns="http://www.w3.org/2000/svg" width="541.97" height="129.66" viewBox="0 0 541.97 129.66">
  <defs>
    <style>
      .cls-1, .cls-3 {
        fill: #56873e;
      }

      .cls-2 {
        fill: #73b452;
      }

      .cls-3, .cls-5 {
        opacity: 0.3;
      }

      .cls-4 {
        fill: #fff;
      }

      .cls-6 {
        fill: #43aec8;
      }

      .cls-7 {
        fill: #e83d49;
      }

      .cls-8 {
        fill: #fee169;
      }
    </style>
  </defs>
  <title>learn_normal</title>
  <g>
    <rect class="cls-1" x="2.97" y="2.71" width="539" height="126.95" rx="10" ry="10"/>
    <rect class="cls-2" width="539" height="126.95" rx="10" ry="10"/>
    <polygon class="cls-3" points="445.39 126.71 233.41 126.71 191.97 85.75 193.57 44.49 221.76 68.26 222.27 46.26 243.09 46.26 256.8 58.62 262.89 44.48 285.75 63.48 285.83 44.48 306.55 47.15 320.3 60.81 320.99 44.48 345.28 62.3 346.85 44.48 358.52 54.17 358.52 46.26 391.7 46.3 411.1 66.44 412.51 59.09 418.99 65.36 425.88 64.73 486.52 126.71 445.39 126.71"/>
    <g>
      <path class="cls-4" d="M-617.63,682.72h2v40H-596v1.77h-21.65V682.72Z" transform="translate(809.52 -638.29)"/>
      <path class="cls-4" d="M-589,682.72h22.41v1.77H-587v16.84h17.09v1.77H-587v19.63h21v1.77h-23V682.72Z" transform="translate(809.52 -638.29)"/>
      <path class="cls-4" d="M-538.62,709.57h-17l-5.25,14.94h-2L-548,682.72h1.77l14.94,41.78h-2.15Zm-0.63-1.77-2.91-8.36c-1.77-5.06-3.29-9.37-4.81-14.56h-0.25c-1.52,5.19-3,9.5-4.81,14.56l-3,8.36h15.76Z" transform="translate(809.52 -638.29)"/>
      <path class="cls-4" d="M-501.64,724.51l-11.78-19.75h-9.37v19.75h-2V682.72h11.52c8.23,0,13.42,3,13.42,10.76,0,6.65-4.31,10.51-11.27,11.14l11.9,19.88h-2.41ZM-514,703c7.72,0,12-3,12-9.5s-4.3-9-12-9h-8.74V703H-514Z" transform="translate(809.52 -638.29)"/>
      <path class="cls-4" d="M-490.37,682.72h2.15l18.49,30.64,4.81,8.23h0.25c-0.13-4.05-.25-7.85-0.25-11.78v-27.1h1.9v41.78h-2.15l-18.49-30.64-4.81-8.23h-0.25c0.13,3.92.25,7.47,0.25,11.4v27.48h-1.9V682.72Z" transform="translate(809.52 -638.29)"/>
    </g>
    <g>
      <path class="cls-4" d="M-451.9,684.36h2l0.16,1h0.07a3.39,3.39,0,0,1,2.45-1.24,2.24,2.24,0,0,1,2.24,1.36,3.55,3.55,0,0,1,2.55-1.36c1.75,0,2.53,1.24,2.53,3.27v5h-2.4v-4.72c0-1.18-.31-1.54-1-1.54a2.14,2.14,0,0,0-1.39.78v5.47h-2.4v-4.72c0-1.18-.31-1.54-1-1.54a2.11,2.11,0,0,0-1.37.78v5.47h-2.4v-8.11Z" transform="translate(809.52 -638.29)"/>
      <path class="cls-4" d="M-434.42,684.17a4,4,0,0,1,3.94,4.25,4,4,0,0,1-3.94,4.25,4,4,0,0,1-4-4.25A4,4,0,0,1-434.42,684.17Zm0,6.55c1,0,1.49-.9,1.49-2.3s-0.51-2.3-1.49-2.3-1.49.9-1.49,2.3S-435.42,690.72-434.42,690.72Z" transform="translate(809.52 -638.29)"/>
      <path class="cls-4" d="M-428.83,684.36h2l0.16,1.42h0.07a2.71,2.71,0,0,1,2.3-1.62,2.34,2.34,0,0,1,1,.16l-0.39,2.08a3,3,0,0,0-.88-0.13,2,2,0,0,0-1.78,1.49v4.71h-2.4v-8.11Z" transform="translate(809.52 -638.29)"/>
      <path class="cls-4" d="M-419.15,684.17c2.3,0,3.45,1.68,3.45,3.89a4.77,4.77,0,0,1-.1,1h-4.85a2,2,0,0,0,2.11,1.77,3.27,3.27,0,0,0,1.75-.54l0.8,1.46a5.31,5.31,0,0,1-2.88.92,4,4,0,0,1-4.1-4.25A4,4,0,0,1-419.15,684.17Zm1.41,3.42A1.33,1.33,0,0,0-419.1,686a1.62,1.62,0,0,0-1.57,1.58h2.92Z" transform="translate(809.52 -638.29)"/>
      <path class="cls-4" d="M-447.63,703.59a1.13,1.13,0,0,0-1.27-1.18,4.36,4.36,0,0,0-2.16.74l-0.85-1.58a6.7,6.7,0,0,1,3.46-1.06c2.08,0,3.22,1.18,3.22,3.66v4.64h-2l-0.18-.83h0a3.57,3.57,0,0,1-2.37,1,2.33,2.33,0,0,1-2.4-2.45C-452.19,704.85-450.84,703.92-447.63,703.59Zm-1.34,3.55a1.81,1.81,0,0,0,1.34-.69V705c-1.72.23-2.27,0.72-2.27,1.34A0.78,0.78,0,0,0-449,707.14Z" transform="translate(809.52 -638.29)"/>
      <path class="cls-4" d="M-443.17,697.35h2.4v2.81l-0.07,1.24a3.29,3.29,0,0,1,2.14-.9c2,0,3.19,1.62,3.19,4.1,0,2.79-1.67,4.4-3.42,4.4a2.94,2.94,0,0,1-2.11-1h-0.07l-0.2.85h-1.88V697.35Zm3.69,9.69c0.83,0,1.5-.72,1.5-2.39,0-1.45-.44-2.19-1.41-2.19a1.85,1.85,0,0,0-1.39.74v3.32A1.86,1.86,0,0,0-439.48,707Z" transform="translate(809.52 -638.29)"/>
      <path class="cls-4" d="M-430.33,700.5a4,4,0,0,1,3.94,4.25,4,4,0,0,1-3.94,4.25,4,4,0,0,1-4-4.25A4,4,0,0,1-430.33,700.5Zm0,6.55c1,0,1.49-.9,1.49-2.3s-0.51-2.3-1.49-2.3-1.49.9-1.49,2.3S-431.33,707.05-430.33,707.05Z" transform="translate(809.52 -638.29)"/>
      <path class="cls-4" d="M-424.83,700.7h2.4v4.72c0,1.16.31,1.54,1,1.54a1.67,1.67,0,0,0,1.44-.9V700.7h2.4v8.11h-2l-0.18-1.13h0a3.16,3.16,0,0,1-2.55,1.32c-1.76,0-2.52-1.24-2.52-3.27v-5Z" transform="translate(809.52 -638.29)"/>
      <path class="cls-4" d="M-415.15,702.58h-1.11v-1.78l1.24-.1,0.28-2.16h2v2.16h1.95v1.88h-1.95v3.25a1,1,0,0,0,1,1.29,2.29,2.29,0,0,0,.77-0.16l0.38,1.75a5.87,5.87,0,0,1-1.8.29c-2,0-2.79-1.26-2.79-3.14v-3.29Z" transform="translate(809.52 -638.29)"/>
      <path class="cls-4" d="M-405.49,702.58h-1.11v-1.78l1.24-.1,0.28-2.16h2v2.16h1.95v1.88h-1.95v3.25a1,1,0,0,0,1,1.29,2.29,2.29,0,0,0,.77-0.16l0.38,1.75a5.87,5.87,0,0,1-1.8.29c-2,0-2.79-1.26-2.79-3.14v-3.29Z" transform="translate(809.52 -638.29)"/>
      <path class="cls-4" d="M-399.56,697.35h2.4v2.81l-0.11,1.45a3.72,3.72,0,0,1,2.5-1.11c1.76,0,2.52,1.24,2.52,3.27v5h-2.4v-4.72c0-1.18-.31-1.54-1-1.54a2,2,0,0,0-1.5.78v5.47h-2.4V697.35Z" transform="translate(809.52 -638.29)"/>
      <path class="cls-4" d="M-386.88,700.5c2.3,0,3.45,1.68,3.45,3.89a4.77,4.77,0,0,1-.1,1h-4.85a2,2,0,0,0,2.11,1.77,3.27,3.27,0,0,0,1.75-.54l0.8,1.46a5.31,5.31,0,0,1-2.88.92,4,4,0,0,1-4.1-4.25A4,4,0,0,1-386.88,700.5Zm1.41,3.42a1.33,1.33,0,0,0-1.36-1.58,1.62,1.62,0,0,0-1.57,1.58h2.92Z" transform="translate(809.52 -638.29)"/>
      <path class="cls-4" d="M-449.5,725.78v2.37h-2.4V717h2l0.16,0.8h0.07a3.56,3.56,0,0,1,2.3-1c2,0,3.17,1.62,3.17,4.12,0,2.78-1.67,4.38-3.42,4.38a2.81,2.81,0,0,1-1.93-.85Zm1.29-2.4c0.83,0,1.5-.72,1.5-2.39,0-1.45-.44-2.19-1.41-2.19a1.87,1.87,0,0,0-1.39.74v3.32A1.86,1.86,0,0,0-448.2,723.37Z" transform="translate(809.52 -638.29)"/>
      <path class="cls-4" d="M-442.54,717h2l0.16,1.42h0.07a2.71,2.71,0,0,1,2.3-1.62,2.34,2.34,0,0,1,1,.16l-0.39,2.08a3,3,0,0,0-.88-0.13,2,2,0,0,0-1.78,1.49v4.71h-2.4V717Z" transform="translate(809.52 -638.29)"/>
      <path class="cls-4" d="M-432.72,716.84a4,4,0,0,1,3.94,4.25,4,4,0,0,1-3.94,4.25,4,4,0,0,1-4-4.25A4,4,0,0,1-432.72,716.84Zm0,6.55c1,0,1.49-.9,1.49-2.3s-0.51-2.3-1.49-2.3-1.49.9-1.49,2.3S-433.72,723.39-432.72,723.39Z" transform="translate(809.52 -638.29)"/>
      <path class="cls-4" d="M-423.39,716.84a3.27,3.27,0,0,1,2.37.93l-1.09,1.49a1.73,1.73,0,0,0-1.13-.47c-1.16,0-1.9.9-1.9,2.3s0.77,2.3,1.81,2.3a2.33,2.33,0,0,0,1.45-.59l1,1.52a4.21,4.21,0,0,1-2.7,1,3.9,3.9,0,0,1-4-4.25A4.07,4.07,0,0,1-423.39,716.84Z" transform="translate(809.52 -638.29)"/>
      <path class="cls-4" d="M-416.61,716.84c2.3,0,3.45,1.68,3.45,3.89a4.77,4.77,0,0,1-.1,1h-4.85A2,2,0,0,0-416,723.5a3.27,3.27,0,0,0,1.75-.54l0.8,1.46a5.31,5.31,0,0,1-2.88.92,4,4,0,0,1-4.1-4.25A4,4,0,0,1-416.61,716.84Zm1.41,3.42a1.33,1.33,0,0,0-1.36-1.58,1.62,1.62,0,0,0-1.57,1.58h2.92Z" transform="translate(809.52 -638.29)"/>
      <path class="cls-4" d="M-411.14,722.7a3.49,3.49,0,0,0,2.09.85c0.72,0,1-.26,1-0.69s-0.82-.78-1.65-1.11-2.14-1-2.14-2.39c0-1.5,1.23-2.53,3.1-2.53a4.67,4.67,0,0,1,2.86,1l-1.08,1.44a3,3,0,0,0-1.72-.69c-0.62,0-.92.23-0.92,0.64s0.75,0.72,1.58,1c1,0.38,2.19.95,2.19,2.43s-1.16,2.62-3.33,2.62a5.23,5.23,0,0,1-3.11-1.13Z" transform="translate(809.52 -638.29)"/>
      <path class="cls-4" d="M-403.91,722.7a3.49,3.49,0,0,0,2.09.85c0.72,0,1-.26,1-0.69s-0.82-.78-1.65-1.11-2.14-1-2.14-2.39c0-1.5,1.23-2.53,3.1-2.53a4.67,4.67,0,0,1,2.86,1l-1.08,1.44a3,3,0,0,0-1.72-.69c-0.62,0-.92.23-0.92,0.64s0.75,0.72,1.58,1c1,0.38,2.19.95,2.19,2.43s-1.16,2.62-3.33,2.62a5.23,5.23,0,0,1-3.11-1.13Z" transform="translate(809.52 -638.29)"/>
    </g>
    <g>
      <path class="cls-4" d="M-610.62,669.81h-3.94l-0.92,3.19h-2.14l3.85-11.78h2.45l3.83,11.78h-2.21Zm-0.47-1.64-0.41-1.44c-0.36-1.24-.72-2.59-1.06-3.89h-0.07c-0.32,1.31-.67,2.65-1,3.89l-0.41,1.44h3Z" transform="translate(809.52 -638.29)"/>
      <path class="cls-4" d="M-599.68,673l-2.54-4.61H-604V673h-2.09V661.23h4c2.45,0,4.34.86,4.34,3.49a3.29,3.29,0,0,1-2.36,3.37l2.81,4.92h-2.34Zm-4.32-6.27h1.66c1.62,0,2.48-.69,2.48-2s-0.86-1.82-2.48-1.82H-604v3.84Z" transform="translate(809.52 -638.29)"/>
      <path class="cls-4" d="M-593.34,663h-3.4v-1.76h8.88V663h-3.38v10h-2.09V663Z" transform="translate(809.52 -638.29)"/>
      <path class="cls-4" d="M-585.94,661.23h2.09V673h-2.09V661.23Z" transform="translate(809.52 -638.29)"/>
      <path class="cls-4" d="M-576.11,661a4.61,4.61,0,0,1,3.35,1.49l-1.15,1.3a3,3,0,0,0-2.18-1c-1.93,0-3.31,1.62-3.31,4.27s1.28,4.3,3.24,4.3a3.19,3.19,0,0,0,2.48-1.17l1.15,1.28a4.7,4.7,0,0,1-3.67,1.71c-3,0-5.35-2.16-5.35-6.07S-579.14,661-576.11,661Z" transform="translate(809.52 -638.29)"/>
      <path class="cls-4" d="M-570.61,661.23h2.09v10h4.88V673h-7V661.23Z" transform="translate(809.52 -638.29)"/>
      <path class="cls-4" d="M-561.63,661.23h7.08V663h-5v3h4.23v1.76h-4.23v3.47h5.17V673h-7.26V661.23Z" transform="translate(809.52 -638.29)"/>
      <path class="cls-4" d="M-551.62,670.07a4.68,4.68,0,0,0,3.08,1.33c1.31,0,2.05-.59,2.05-1.51s-0.76-1.28-1.84-1.73l-1.6-.7a3.37,3.37,0,0,1-2.38-3.13c0-1.87,1.66-3.31,3.94-3.31a5.21,5.21,0,0,1,3.64,1.49l-1.08,1.33a3.81,3.81,0,0,0-2.56-1c-1.12,0-1.84.52-1.84,1.39s0.9,1.26,1.87,1.66l1.58,0.67a3.28,3.28,0,0,1,2.38,3.19c0,1.91-1.58,3.49-4.23,3.49a6.05,6.05,0,0,1-4.23-1.73Z" transform="translate(809.52 -638.29)"/>
    </g>
    <g class="cls-5">
      <rect class="cls-1" x="112.31" y="43.01" width="66.63" height="43.1"/>
      <rect class="cls-1" x="112.31" y="40.47" width="66.63" height="5.07"/>
      <rect class="cls-1" x="112.31" y="85.3" width="66.63" height="5.07"/>
      <rect class="cls-1" x="130.75" y="61.82" width="7.58" height="16.94"/>
      <rect class="cls-1" x="142.6" y="54.57" width="7.58" height="24.2"/>
      <rect class="cls-1" x="155.73" y="50.08" width="7.58" height="28.69"/>
      <polygon class="cls-1" points="133.32 69.28 101.11 104.11 103.17 105.97 134.19 70.26 133.32 69.28"/>
    </g>
    <g>
      <rect class="cls-4" x="109.31" y="41.01" width="66.63" height="43.1"/>
      <rect class="cls-6" x="109.31" y="38.47" width="66.63" height="5.07"/>
      <rect class="cls-6" x="109.31" y="83.3" width="66.63" height="5.07"/>
      <rect class="cls-6" x="127.75" y="59.82" width="7.58" height="16.94"/>
      <rect class="cls-7" x="139.6" y="52.57" width="7.58" height="24.2"/>
      <rect class="cls-8" x="152.73" y="48.08" width="7.58" height="28.69"/>
      <polygon class="cls-8" points="130.32 67.28 98.11 102.11 100.17 103.97 131.19 68.26 130.32 67.28"/>
    </g>
  </g>
</svg>
