<!-- Generator: Adobe Illustrator 19.2.1, SVG Export Plug-In  -->
<svg version="1.1"
	 xmlns="http://www.w3.org/2000/svg" xmlns:xlink="http://www.w3.org/1999/xlink" xmlns:a="http://ns.adobe.com/AdobeSVGViewerExtensions/3.0/"
	 x="0px" y="0px" width="110.562px" height="90.108px" viewBox="0 0 110.562 90.108"
	 style="enable-background:new 0 0 110.562 90.108;" xml:space="preserve">
<style type="text/css">
	.st0{fill:#FEE169;}
	.st1{fill:#E83D49;}
	.st2{fill:#FFFFFF;}
</style>
<defs>
</defs>
<g>
	<rect x="26.931" y="0.014" class="st0" width="41.284" height="11.126"/>
	<polygon class="st0" points="17.761,86.148 26.967,61.286 38.679,61.278 29.914,90.108 	"/>
	<polygon class="st0" points="80.858,86.106 71.619,61.257 59.907,61.264 68.71,90.083 	"/>
	<polygon class="st0" points="110.533,16.662 110.562,60.581 90.915,49.468 90.901,28.972 	"/>
	<path class="st1" d="M88.496,68.209L6.732,68.262c-3.699,0.002-6.699-2.994-6.702-6.693L0,15.526
		c-0.002-3.699,2.994-6.699,6.693-6.702l81.765-0.054c3.699-0.002,6.699,2.994,6.702,6.693l0.03,46.043
		C95.192,65.206,92.195,68.206,88.496,68.209z"/>
	<polygon class="st2" points="39.742,23.735 39.761,51.844 61.711,37.775 	"/>
</g>
</svg>