<svg id="Layer_3" data-name="Layer 3" xmlns="http://www.w3.org/2000/svg" width="542.39" height="129.66" viewBox="0 0 542.39 129.66">
  <defs>
    <style>
      .cls-1, .cls-3 {
        fill: #328396;
      }

      .cls-2 {
        fill: #43aec8;
      }

      .cls-3, .cls-5 {
        opacity: 0.5;
      }

      .cls-4 {
        fill: #fff;
      }

      .cls-6 {
        fill: #fee169;
      }

      .cls-7 {
        fill: #e83d49;
      }
    </style>
  </defs>
  <title>watch_normal</title>
  <g>
    <rect class="cls-1" x="3.39" y="2.71" width="539" height="126.95" rx="10" ry="10"/>
    <rect class="cls-2" width="539" height="126.95" rx="10" ry="10"/>
    <g>
      <polygon class="cls-3" points="445.4 126.71 253.64 126.71 212.37 85.81 225.06 44.49 240.95 61.87 245.02 44.56 258.38 59.63 264.27 44.48 293.66 70.8 293.66 58.3 279.67 46.26 308.85 46.29 316.29 51.84 322.05 46.09 334.4 44.48 351.25 58.3 352.34 44.48 375.71 61.62 377.11 44.48 389 53.36 389.67 43.25 393.42 46.11 395.45 41.86 402.88 46.88 407.66 45.55 411.23 47.36 422.46 46.11 504.66 126.71 445.4 126.71"/>
      <g>
        <path class="cls-4" d="M-990.32,685.43h-1.11v-1.78l1.24-.1,0.28-2.16h2v2.16H-986v1.88h-1.94v3.25a1,1,0,0,0,1,1.29,2.29,2.29,0,0,0,.77-0.16l0.38,1.75a5.87,5.87,0,0,1-1.8.29c-2,0-2.79-1.26-2.79-3.14v-3.29Z" transform="translate(1377.66 -638.29)"/>
        <path class="cls-4" d="M-984.4,680.2h2.4V683l-0.11,1.45a3.72,3.72,0,0,1,2.5-1.11c1.76,0,2.52,1.24,2.52,3.27v5h-2.4v-4.72c0-1.18-.31-1.54-1-1.54a2,2,0,0,0-1.5.78v5.47h-2.4V680.2Z" transform="translate(1377.66 -638.29)"/>
        <path class="cls-4" d="M-971.72,683.35c2.3,0,3.45,1.68,3.45,3.89a4.77,4.77,0,0,1-.1,1h-4.85a2,2,0,0,0,2.11,1.77,3.27,3.27,0,0,0,1.75-.54l0.8,1.46a5.31,5.31,0,0,1-2.88.92,4,4,0,0,1-4.1-4.25A4,4,0,0,1-971.72,683.35Zm1.41,3.42a1.33,1.33,0,0,0-1.36-1.58,1.62,1.62,0,0,0-1.57,1.58h2.93Z" transform="translate(1377.66 -638.29)"/>
        <path class="cls-4" d="M-966.61,683.55h2l0.16,1h0.07a3.39,3.39,0,0,1,2.45-1.24,2.24,2.24,0,0,1,2.24,1.36,3.55,3.55,0,0,1,2.55-1.36c1.75,0,2.53,1.24,2.53,3.27v5H-957v-4.72c0-1.18-.31-1.54-1-1.54a2.14,2.14,0,0,0-1.39.78v5.47h-2.4v-4.72c0-1.18-.31-1.54-1-1.54a2.11,2.11,0,0,0-1.37.78v5.47h-2.4v-8.11Z" transform="translate(1377.66 -638.29)"/>
        <path class="cls-4" d="M-990.85,697.43a1.27,1.27,0,0,1,1.39-1.24,1.26,1.26,0,0,1,1.39,1.24,1.27,1.27,0,0,1-1.39,1.26A1.28,1.28,0,0,1-990.85,697.43Zm0.2,2.45h2.4V708h-2.4v-8.11Z" transform="translate(1377.66 -638.29)"/>
        <path class="cls-4" d="M-986.14,699.88h2l0.16,1H-984a3.74,3.74,0,0,1,2.6-1.23c1.76,0,2.52,1.24,2.52,3.27v5h-2.4v-4.72c0-1.18-.31-1.54-1-1.54a2,2,0,0,0-1.5.78V708h-2.4v-8.11Z" transform="translate(1377.66 -638.29)"/>
        <path class="cls-4" d="M-986.39,719.11a1.13,1.13,0,0,0-1.27-1.18,4.36,4.36,0,0,0-2.16.74l-0.85-1.58A6.7,6.7,0,0,1-987.2,716c2.08,0,3.22,1.18,3.22,3.66v4.64h-2l-0.18-.83h0a3.57,3.57,0,0,1-2.37,1,2.33,2.33,0,0,1-2.4-2.45C-990.95,720.37-989.59,719.44-986.39,719.11Zm-1.34,3.55a1.81,1.81,0,0,0,1.34-.69v-1.42c-1.72.23-2.27,0.72-2.27,1.34A0.77,0.77,0,0,0-987.73,722.66Z" transform="translate(1377.66 -638.29)"/>
        <path class="cls-4" d="M-978.19,716a3.27,3.27,0,0,1,2.37.93l-1.1,1.49A1.73,1.73,0,0,0-978,718c-1.16,0-1.9.9-1.9,2.3s0.77,2.3,1.81,2.3a2.33,2.33,0,0,0,1.45-.59l1,1.52a4.21,4.21,0,0,1-2.7,1,3.9,3.9,0,0,1-4-4.25A4.07,4.07,0,0,1-978.19,716Z" transform="translate(1377.66 -638.29)"/>
        <path class="cls-4" d="M-974,718.1h-1.11v-1.78l1.24-.1,0.28-2.16h2v2.16h1.94v1.88h-1.94v3.25a1,1,0,0,0,1,1.29,2.29,2.29,0,0,0,.77-0.16l0.38,1.75a5.87,5.87,0,0,1-1.8.29c-2,0-2.79-1.26-2.79-3.14V718.1Z" transform="translate(1377.66 -638.29)"/>
        <path class="cls-4" d="M-968.24,713.77a1.27,1.27,0,0,1,1.39-1.24,1.26,1.26,0,0,1,1.39,1.24,1.27,1.27,0,0,1-1.39,1.26A1.28,1.28,0,0,1-968.24,713.77Zm0.2,2.45h2.4v8.11H-968v-8.11Z" transform="translate(1377.66 -638.29)"/>
        <path class="cls-4" d="M-960.06,716a4,4,0,0,1,3.94,4.25,4,4,0,0,1-3.94,4.25,4,4,0,0,1-4-4.25A4,4,0,0,1-960.06,716Zm0,6.55c1,0,1.49-.9,1.49-2.3s-0.51-2.3-1.49-2.3-1.49.9-1.49,2.3S-961.05,722.57-960.06,722.57Z" transform="translate(1377.66 -638.29)"/>
        <path class="cls-4" d="M-954.47,716.22h2l0.16,1h0.07a3.74,3.74,0,0,1,2.6-1.23c1.76,0,2.52,1.24,2.52,3.27v5h-2.4V719.6c0-1.18-.31-1.54-1-1.54a2,2,0,0,0-1.5.78v5.47h-2.4v-8.11Z" transform="translate(1377.66 -638.29)"/>
      </g>
      <g>
        <path class="cls-4" d="M-1176,682.72h2.15l5.57,25.32,3,13.67h0.25c1-4.56,2.15-9.12,3.29-13.67l6.84-25.32h2.28l6.84,25.32,3.42,13.67h0.25c1-4.56,1.9-9.12,2.91-13.67l5.57-25.32h2l-9.62,41.78h-2l-8.1-30c-0.76-3.29-1.52-6.08-2.28-9.37h-0.25c-0.76,3.29-1.65,6.08-2.41,9.37l-8,30h-2Z" transform="translate(1377.66 -638.29)"/>
        <path class="cls-4" d="M-1105.1,709.57h-17l-5.25,14.94h-2l14.94-41.78h1.77l14.94,41.78h-2.15Zm-0.63-1.77-2.91-8.36c-1.77-5.06-3.29-9.37-4.81-14.56h-0.25c-1.52,5.19-3,9.5-4.81,14.56l-3,8.36h15.76Z" transform="translate(1377.66 -638.29)"/>
        <path class="cls-4" d="M-1084.71,684.5h-13.55v-1.77h29.12v1.77h-13.55v40h-2v-40Z" transform="translate(1377.66 -638.29)"/>
        <path class="cls-4" d="M-1047.86,682a14,14,0,0,1,10.64,4.94l-1.27,1.39a12.1,12.1,0,0,0-9.37-4.43c-9.62,0-15.45,7.6-15.45,19.63s5.82,19.88,15.19,19.88c4.43,0,7.72-1.77,10.89-5.32l1.27,1.27c-3.17,3.67-6.84,6-12.28,6-10.26,0-17.22-8.61-17.22-21.78S-1058.5,682-1047.86,682Z" transform="translate(1377.66 -638.29)"/>
        <path class="cls-4" d="M-1027.6,682.72h2v18.61h23.42V682.72h2v41.78h-2v-21.4h-23.42v21.4h-2V682.72Z" transform="translate(1377.66 -638.29)"/>
      </g>
      <polygon class="cls-4" points="325.66 58.3 325.66 72.47 335.11 65.38 325.66 58.3"/>
      <g>
        <path class="cls-4" d="M-1177.75,661.23h2.21l1.66,5.92c0.38,1.33.63,2.48,1,3.83h0.07c0.4-1.35.67-2.5,1-3.83l1.64-5.92h2.12l-3.64,11.78h-2.48Z" transform="translate(1377.66 -638.29)"/>
        <path class="cls-4" d="M-1166.59,661.23h2.09v10h4.88V673h-7V661.23Z" transform="translate(1377.66 -638.29)"/>
        <path class="cls-4" d="M-1158.79,667.06c0-3.8,2.12-6,5.2-6s5.19,2.25,5.19,6-2.12,6.16-5.19,6.16S-1158.79,670.88-1158.79,667.06Zm8.25,0c0-2.63-1.21-4.23-3-4.23s-3.06,1.6-3.06,4.23,1.21,4.34,3.06,4.34S-1150.55,669.71-1150.55,667.06Z" transform="translate(1377.66 -638.29)"/>
        <path class="cls-4" d="M-1141.1,661a4.78,4.78,0,0,1,3.51,1.49l-1.15,1.3a3.07,3.07,0,0,0-2.34-1c-2.09,0-3.49,1.62-3.49,4.27s1.26,4.3,3.62,4.3a2.59,2.59,0,0,0,1.67-.52v-2.54h-2.21v-1.71h4.09v5.19a5.7,5.7,0,0,1-3.8,1.4c-3.13,0-5.51-2.16-5.51-6.07S-1144.27,661-1141.1,661Z" transform="translate(1377.66 -638.29)"/>
      </g>
    </g>
    <g class="cls-5">
      <rect class="cls-1" x="127.43" y="39.17" width="27.23" height="7.34"/>
      <polygon class="cls-1" points="121.34 96.03 127.43 79.71 135.15 79.71 129.36 98.68 121.34 96.03"/>
      <polygon class="cls-1" points="162.96 96.03 156.87 79.71 149.15 79.71 154.94 98.68 162.96 96.03"/>
      <polygon class="cls-1" points="182.66 50.17 182.66 79.14 169.66 71.8 169.66 58.28 182.66 50.17"/>
      <rect class="cls-1" x="109.66" y="44.96" width="62.75" height="39.2" rx="4.42" ry="4.42"/>
      <polygon class="cls-1" points="135.66 54.81 135.66 73.34 150.15 64.08 135.66 54.81"/>
    </g>
    <g>
      <rect class="cls-6" x="125.43" y="36.17" width="27.23" height="7.34"/>
      <polygon class="cls-6" points="119.34 93.03 125.43 76.71 133.15 76.71 127.36 95.68 119.34 93.03"/>
      <polygon class="cls-6" points="160.96 93.03 154.87 76.71 147.15 76.71 152.94 95.68 160.96 93.03"/>
      <polygon class="cls-6" points="180.66 47.17 180.66 76.14 167.66 68.8 167.66 55.28 180.66 47.17"/>
      <rect class="cls-7" x="107.66" y="41.96" width="62.75" height="39.2" rx="4.42" ry="4.42"/>
      <polygon class="cls-4" points="133.66 51.81 133.66 70.34 148.15 61.08 133.66 51.81"/>
    </g>
  </g>
</svg>
