<svg xmlns="http://www.w3.org/2000/svg" viewBox="0 0 235 235"><defs><style>.cls-1{isolation:isolate;}.cls-2{fill:#fff;}.cls-3{fill:#f2f2f2;}.cls-4{fill:#fbb03b;}.cls-5{fill:#73b452;}.cls-6{fill:#fee06b;}.cls-7{fill:#fe6556;}.cls-8{fill:#43aec8;}.cls-9{fill:#e6e6e6;mix-blend-mode:multiply;}</style></defs><title>be challenged</title><g class="cls-1"><g id="Layer_2" data-name="Layer 2"><g id="Layer_3" data-name="Layer 3"><rect class="cls-2" width="235" height="235"/><polygon class="cls-3" points="0 0 235 235 0 235 0 0"/><polygon class="cls-4" points="42 118.254 42 80.232 76 99.243 76 137.265 42 118.254"/><polygon class="cls-5" points="79 139.068 79 101.045 112 120.057 112 158.079 79 139.068"/><polygon class="cls-6" points="42 159.881 42 121.859 76 140.87 76 178.893 42 159.881"/><polygon class="cls-2" points="79 180.695 79 142.673 112 161.684 112 199.706 79 180.695"/><polygon class="cls-7" points="113 161.684 149 142.673 149 180.695 113 199.706 113 161.684"/><polygon class="cls-2" points="113 120.057 149 101.045 149 139.068 113 158.079 113 120.057"/><polygon class="cls-4" points="152 140.87 183 121.859 183 159.881 152 178.893 152 140.87"/><polygon class="cls-8" points="152 99.243 183 80.232 183 118.254 152 137.265 152 99.243"/><polygon class="cls-8" points="44.404 77.528 77.333 58.516 110.261 77.528 77.333 96.539 44.404 77.528"/><polygon class="cls-5" points="80.455 56.714 113.383 37.703 146.312 56.714 113.383 75.725 80.455 56.714"/><polygon class="cls-4" points="80.455 98.341 113.383 79.33 146.312 98.341 113.383 117.353 80.455 98.341"/><polygon class="cls-7" points="116.505 77.528 149.434 58.516 182.362 77.528 149.434 96.539 116.505 77.528"/><polygon class="cls-9" points="113 161.684 149 142.673 149 180.695 113 199.706 113 161.684"/><polygon class="cls-9" points="113 120.057 149 101.045 149 139.068 113 158.079 113 120.057"/><polygon class="cls-9" points="152 140.87 183 121.859 183 159.881 152 178.893 152 140.87"/><polygon class="cls-9" points="152 99.243 183 80.232 183 118.254 152 137.265 152 99.243"/></g></g></g></svg>