<svg xmlns="http://www.w3.org/2000/svg" viewBox="0 0 235.5 235"><defs><style>.cls-1{fill:#fff;}.cls-2{fill:#f2f2f2;}.cls-3{fill:#443f3e;}.cls-4{fill:#28201d;}.cls-5{fill:#f0d3a8;}.cls-6{fill:none;}.cls-7{fill:#fa7b6f;}.cls-8{fill:#355c6e;}.cls-9{fill:#f7ce98;}.cls-10{fill:#fed7b8;}.cls-11{fill:#e9a77b;}.cls-12{opacity:0.1;}.cls-13{fill:#231e1f;}.cls-14{fill:#f76861;}.cls-15{fill:#fee06b;}</style></defs><title>be empowered</title><g id="Layer_2" data-name="Layer 2"><g id="Layer_3" data-name="Layer 3"><rect class="cls-1" x="0.5" width="235" height="235"/><polygon class="cls-2" points="0 0 235.5 235 0 235 0 0"/><path class="cls-3" d="M60,90s3,43-3,59h74s-4-52-2-65S60,90,60,90Z"/><path class="cls-4" d="M76,134c-.59568-4.9098-3.24569-27.63338-3.27969-38.59519a.159.159,0,0,1,.24016-.13593l5.64273,3.37158c.04705.02815.93516,13.57078.93516,13.57078.17452,2.13135.51741,4.22877.60928,6.408.00229.07109.06872-.02159,0,0C79.31749,118.871,79.01621,133.64938,78,134H76"/><path class="cls-4" d="M114.16835,136c2.95532-3.97541,3.11119-29.81715,3.19849-40.5944a.1576.1576,0,0,0-.20694-.15135l-7.79029,2.53052a.15664.15664,0,0,0-.10889.15681l.56911,13.42986-.071.87071c-.17761,2.16527-.36138,4.40321-.44789,6.61648-.00308.07409.14223.0889.11814.159C106,129,113.0548,135.80231,114,136.05875Z"/><path class="cls-5" d="M147.91553,144.8457c-.91431-.92358-4.54541-4.69971-7.60425-5.54773a6.14058,6.14058,0,0,0-2.12512-.153C135.095,138.30811,119.85034,135,118,135c-1.49963,0-3.57446-1.02576-5.02637-1.01343-2.64722-2.417-3.157-7.1864-3.157-12.90234,0-3.34546.29736-6.67065.56616-9.9917-.35132.51892-.90588,1.02625-1.27478,1.52747.36865-.50061.892-1.00879.892-1.52661v-.00378c3-3.35229,4.35022-7.022,5.73865-10.40967a16.13409,16.13409,0,0,0,1.07623-3.32446.85573.85573,0,0,0,.80606.35522c1.43945,0,2.37154-2.0155,2.957-4.64734.4231-1.89734,1.62424-4.21326,1.62424-5.58936,0-4.44653-.53456-5.7439-1.60633-5.95544-.5415-.10815-1.29755.19922-2.45588,1.29041,1.12048-5.39636,2.46035-10.6908,2.46035-16.18213a21.28455,21.28455,0,0,0-4.83348-13.84143l.00184-.00232a21.94732,21.94732,0,0,0-17.07684-7.6134c-.59155,0-2.19766-.01245-3.98233-.01929-1.78772.00684-3.39082.01929-3.98225.01929-12.257,0-21.91282,8.78955-21.91282,21.458,0,5.49121,1.34059,10.78564,2.46022,16.182-1.16138-1.09119-1.9165-1.39771-2.4602-1.29041-1.07349.2124-1.614,1.509-1.614,5.95618,0,1.37622,1.19238,3.69128,1.614,5.58948.58447,2.63086,1.495,4.64575,2.93433,4.64575a.78569.78569,0,0,0,.75684-.35376,15.19613,15.19613,0,0,0,.98315,3.32373,58.61038,58.61038,0,0,0,5.54456,10.40967l.00012.00012c.0918,1.11975.186,2.23938.271,3.36023.16675,2.20557.298,4.41553.298,6.63354,0,5.71594-.50806,10.48535-3.15686,12.90234C74.99377,133.97424,73.50269,135,72,135c-1.84717,0-17.67578,3.30811-20.76624,4.145a6.14334,6.14334,0,0,0-2.12585.153c-3.062.848-6.69922,4.63342-7.60742,5.55078,0,0-4.79541,5.62805-4.79541,18.12122,0,6.53931.23633,12.31586.58838,17.10687A89.23872,89.23872,0,0,0,94.58606,201h.244a89.19735,89.19735,0,0,0,54.14185-18.41193c1.06873-.814,2.1189-1.71542,3.14917-2.57407.35364-4.79395.59-10.47258.59-17.01506C152.71106,150.50578,147.91553,144.8457,147.91553,144.8457Zm-38.97388-31.74512q-.171.226-.344.449Q108.77124,113.3269,108.94165,113.10059Zm-.81079,1.03625c-.12158.15063-.24292.30127-.36621.44934C107.88794,114.43811,108.00928,114.28735,108.13086,114.13684Zm-.84058,1.00513c-.126.14563-.2511.2926-.37866.43542C107.03906,115.43457,107.16431,115.2876,107.29028,115.142Zm-.876.97546c-.12585.135-.25049.27271-.37769.40479C106.16382,116.39014,106.28845,116.25244,106.41431,116.11743Zm-.96082.988c-.10413.10254-.2063.20923-.31116.30945C105.24719,117.3147,105.34937,117.20789,105.45349,117.10547Zm-1.204,1.12573c-.12366.10815-.24976.2085-.37451.3136C103.99976,118.4397,104.12585,118.33936,104.24951,118.2312Zm-.93652.77881c-.13708.1084-.27612.20972-.41431.31421C103.03687,119.21973,103.176,119.11841,103.313,119.01Zm-.95972.71777c-.14124.09985-.28394.19373-.42627.28918C102.06934,119.92151,102.21216,119.82764,102.35327,119.72778Zm-.98.6499c-.14307.089-.28711.17334-.4314.25769C101.08606,120.551,101.23022,120.4668,101.37329,120.37769Zm-1.00171.57788q-.21423.11444-.42993.22144Q100.15735,121.0697,100.37158,120.95557Zm-1.02368.50049c-.14.0625-.28.124-.4209.18164C99.06787,121.58008,99.208,121.51855,99.3479,121.45605Zm-1.05164.41943c-.13281.04688-.26526.09558-.3988.13806C98.031,121.97095,98.16357,121.92236,98.29626,121.87549Zm-1.089.33252c-.11792.03052-.23535.06494-.35376.0918C96.97192,122.27295,97.08936,122.23853,97.20728,122.208Zm-1.171.24255c-.08032.01233-.15979.0304-.24036.04114C95.87646,122.481,95.95593,122.46289,96.03625,122.45056Z"/><path class="cls-3" d="M71,119c-10.84207-7.97288-11.03614-20.15339-11.03614-37.52853,0-16.38368,12.21827-37.52658,22.936-39.69035A24.83394,24.83394,0,0,1,94,41l6,1c-.1591,2.58778-6.42171,7.17445-6.42171,9.51084a71.49921,71.49921,0,0,0,3.48585,23.387l-.14289.06176.15214-.03092a.1711.1711,0,0,1-.02855.13633.16139.16139,0,0,1-.1205.06413c-1.12749.02159-2.26263.03242-3.37389.03242A188.58793,188.58793,0,0,1,74.4694,74.15382,153.26245,153.26245,0,0,0,73.03694,95.404C73.07094,106.3187,71.80919,110.61687,74,115"/><path class="cls-3" d="M118,124c10.83908-7.97715,10.65991-25.10317,10.65991-42.47492,0-16.38558-12.21667-37.53037-22.93287-39.693a8.18041,8.18041,0,0,0-1.58776-.13237,32.16119,32.16119,0,0,0-10.544,2.23715.15947.15947,0,0,0-.09347.13435c-.1591,2.59355-.24016,5.09711-.24016,7.43967a71.83847,71.83847,0,0,0,3.509,23.509.17262.17262,0,0,0,.15366.10928c5.37315-.10541,10.90391-.44291,17.3945-1.06073A73.23177,73.23177,0,0,1,117.051,95.40323C116.96371,106.11792,117,109,117,115"/><path class="cls-6" d="M134.7582,200h0Z"/><path class="cls-6" d="M134.63156,167.86749c.29132,7.27885.13668,24.13251-.16873,32.13251h.29538C135.10493,193,134.94276,175.6423,134.63156,167.86749Z"/><path class="cls-6" d="M54.78292,167.86749C54.50974,174.72682,54.5331,192,54.78041,200h.172C54.647,192,54.49294,175.14634,54.78292,167.86749Z"/><path class="cls-7" d="M134.63156,168.46361,152.155,184.78084c.19171,2.92289.31391,5.53438.37569,7.87308.11777-12.27287.18186-26.03122.18186-29.684,0-12.49315-4.79864-18.12425-4.79864-18.12425-.91432-.92359-4.54535-4.6998-7.60493-5.5477a6.10792,6.10792,0,0,0-2.12518-.15136c-.04711-.0139-.10039-.02626-.15753-.0417-2.08811,6.24735-3.09356,16.49176-3.45419,27.90069C134.59449,167.49369,134.613,167.97711,134.63156,168.46361Z"/><path class="cls-8" d="M152.4639,200c.1224-2,.149-4.82084.0668-7.9422-.02664,2.76758-.056,5.9422-.088,7.9422Z"/><path class="cls-8" d="M152.43745,201c.00849-.13582.01853-.26449.02645-.40388h-.02124Z"/><path class="cls-7" d="M152.155,184.78076,134.642,168.47327c-.00366-.09851-.00659-.21252-.01038-.30774l-.0127-.01221c-.01465-.38232-.02917-.76355-.04687-1.14771.36072-11.40894,1.36621-21.65332,3.45435-27.90063-2.587-.712-11.91553-3.50757-17.13428-4.83887-.9082-.19458-1.91357-.40918-2.9292-.6687a.02823.02823,0,0,1-.01611-.00317c-.0686-.01733-.13745-.037-.2063-.05469A11.16025,11.16025,0,0,1,119.20593,139c0,8.83655-10.969,16-24.5,16s-24.5-7.16345-24.5-16a11.16117,11.16117,0,0,1,1.464-5.45776c-.06543.01672-.13086.03564-.19629.052-.0061.00317-.01184-.12988-.01807-.12988A12.5594,12.5594,0,0,1,68.52527,134h-.00989c-5.21875,2-14.54285,4.25989-17.12988,4.97192a49.16768,49.16768,0,0,1,1.72217,7.37866,49.127,49.127,0,0,0-1.7179-7.32019c-.05725.0155-.11047.06506-.15759.079a6.04372,6.04372,0,0,0-2.12671.16992c-3.058.8479-6.689,4.63354-7.60327,5.55713,0,0-4.79871,5.63574-4.79871,18.12891,0,6.54077.23706,11.8916.59,16.68408.03748,9.43469.45,16.35059,1.13745,20.35059H54.7804c-.2301-7.447-.26624-22.66675-.04968-30.2688-.21606,7.88257-.06323,22.80774.22168,30.2688h79.5105c.27832-7.28906.43018-21.65894.23486-29.66479.26587,8.2998.38159,22.92139.06055,29.96289A2.88478,2.88478,0,0,1,136.04443,200h16.39819c.0321-2,.06152-4.87659.08813-7.64416C152.469,190.01709,152.34668,187.70374,152.155,184.78076ZM54.77039,168.50757c-.01086.29639-.02136.59717-.03088.91992C54.74927,169.10449,54.75964,168.79956,54.77039,168.50757Zm.03967-.94238c.00977-.20483.02-.41089.031-.64746l.00073.02136C54.83008,167.196,54.81995,167.37915,54.81006,167.56519Z"/><path class="cls-9" d="M144.24737,148.40569s-.79076-22.93216,2.37229-22.93216,3.11376,2.68561,3.53379,21.90267S144.24737,148.40569,144.24737,148.40569Z"/><path class="cls-10" d="M148.781,154.34914a2.12356,2.12356,0,0,1-.10382-1.15961l.37313-2.35081"/><path class="cls-9" d="M160.77057,189.52543l-.35314-20.08373a32.84594,32.84594,0,0,0,2.63619-4.318c2.29461-5.0807.56769-12.556.56769-12.556l-16.11446-7.59821-7.21464,11.00578c-.01938,1.59045,6.59153,12.43933,6.59153,12.43933"/><path class="cls-11" d="M160.77057,189.52543l-.35314-20.08373a32.84594,32.84594,0,0,0,2.63619-4.318c1.275-2.823,1.70142-8.79858.5568-12.88719a37.98913,37.98913,0,0,1-.10719,7.32028c-1.59762,7.64964-5.2124,7.89564-6.40592,8.02438.43744,1.2454-.18231,3.70133-.22986,3.98223"/><g class="cls-12"><path class="cls-13" d="M150.15345,147.3762l.33094-2.16182a2.01815,2.01815,0,0,1,2.49908-1.55752l.83985.20186a2.49925,2.49925,0,0,1,1.84463,2.7018l-2.17467,8.87463a2.05689,2.05689,0,0,1-2.49907,1.55779c-2.29-.421-2.22-2.14254-2.22-2.14254Z"/></g><g class="cls-12"><path class="cls-13" d="M157.72816,157.52116a2.02414,2.02414,0,0,1-2.61433,1.36334l-.206-.06587a2.2439,2.2439,0,0,1-1.50849-2.682l2.089-9.00946a2.02445,2.02445,0,0,1,2.61456-1.36339l.82425.26373a2.24434,2.24434,0,0,1,1.50867,2.68207Z"/></g><g class="cls-12"><path class="cls-13" d="M162.38525,157.52725a1.98993,1.98993,0,0,1-2.586,1.23452l-.19808-.07038a2.47906,2.47906,0,0,1-1.511-2.84094l1.99325-6.71254a1.9716,1.9716,0,0,1,2.58627-1.23412l.79259.28143c1.095.38931,1.51429,1.16814,1.28387,2.55444C164.74609,150.73965,163.24115,155.02669,162.38525,157.52725Z"/></g><path class="cls-9" d="M149.74863,146.19115l.33094-2.16182a2.01815,2.01815,0,0,1,2.49908-1.55752l.83985.20186a2.49925,2.49925,0,0,1,1.84463,2.7018l-2.17467,8.87463a2.05689,2.05689,0,0,1-2.49907,1.55779c-2.29-.421-2.22-2.14254-2.22-2.14254Z"/><path class="cls-9" d="M157.32334,156.33611a2.02414,2.02414,0,0,1-2.61433,1.36334l-.206-.06587a2.2439,2.2439,0,0,1-1.50848-2.682l2.089-9.00946a2.02445,2.02445,0,0,1,2.61456-1.36339l.82425.26373a2.24434,2.24434,0,0,1,1.50867,2.68207Z"/><path class="cls-11" d="M151.38961,154.40806a1.99367,1.99367,0,0,1-1.36581.82282,2.08691,2.08691,0,0,1-.92105-.0693,3.11451,3.11451,0,0,0,1.48663.64631,2.05689,2.05689,0,0,0,2.49907-1.55779l1.90831-7.78754A53.6112,53.6112,0,0,1,151.38961,154.40806Z"/><path class="cls-11" d="M156.14347,155.82058c-1.60407,1.489-2.49669,1.039-2.92768.76869a2.28693,2.28693,0,0,0,1.28723,1.04432l.206.06587a2.02414,2.02414,0,0,0,2.61433-1.36334l2.70771-8.81156a2.13912,2.13912,0,0,0-.14934-1.501C159.60364,147.4313,157.74277,154.336,156.14347,155.82058Z"/><path class="cls-11" d="M145.67841,153.98622c-.02178.04357-.04555.08546-.07011.12651l1.33859.71c1.47546.2427,1.85458-1.76479,1.85458-1.76479l.92033-6.59064.3486-2.32213a2.30284,2.30284,0,0,0-.017-.65407A73.26807,73.26807,0,0,1,145.67841,153.98622Z"/><path class="cls-9" d="M155.425,165.11469c-.89682-4.87941-5.764-10.73179-8.238-11.59244l.30437-2.78857a4.63307,4.63307,0,0,0,5.77673-3.96054s-1.5888-.22659-3.41-.46579c-2.102-.27611-4.5136-.56893-5.14894-.54939a2.39545,2.39545,0,0,0-2.20449,1.59535s-1.8892,6.24851-2.21243,8.62189c0,0-.25358,1.46855,1.70555,3.9415C144.233,162.73816,155.425,165.11469,155.425,165.11469Z"/><path class="cls-11" d="M147.11328,149.92112c-.07724.413-.92933,2.98213-.97628,3.60092.35051.28416.72656.53614,1.08481.812.59705.45974,3.21337,2.73707,3.70767,3.3057,4.06826,4.68025,4.435,7.06061,4.435,7.06061-.89681-4.8794-5.70346-10.31743-8.17749-11.17807l.30437-2.78857s4.1978,1.03847,5.54094-3.03905q-.18344.15189-.3704.3A7.67953,7.67953,0,0,1,147.11328,149.92112Z"/><path class="cls-9" d="M161.98042,156.3422a1.98993,1.98993,0,0,1-2.586,1.23452l-.19808-.07038a2.47906,2.47906,0,0,1-1.511-2.84094l1.99325-6.71254a1.9716,1.9716,0,0,1,2.58627-1.23412l.79259.28143c1.095.38931,1.51429,1.16814,1.28387,2.55444C164.34127,149.5546,162.83633,153.84164,161.98042,156.3422Z"/><path class="cls-11" d="M161.42943,155.32112a3.54653,3.54653,0,0,1-3.08415,1.62329,2.24557,2.24557,0,0,0,.851.56191l.19808.07038a1.98993,1.98993,0,0,0,2.586-1.23452c.85591-2.50055,2.36084-6.78759,2.36084-6.78759a3.89778,3.89778,0,0,0,.05712-.81939C163.72184,149.77605,161.80888,154.718,161.42943,155.32112Z"/><path class="cls-14" d="M143,200V167h22v33Z"/><rect class="cls-15" x="137.92126" y="52.72324" width="70.87529" height="49.81814" rx="12" ry="12"/><polygon class="cls-15" points="157.182 100 150.969 116.775 172.715 99.378 157.182 100"/></g></g></svg>