<svg xmlns="http://www.w3.org/2000/svg" viewBox="0 0 235 235"><defs><style>.cls-1{fill:#fff;}.cls-2{fill:#f2f2f2;}.cls-3{fill:#fe6556;}.cls-4{fill:#fee06b;}.cls-5{fill:#43aec8;}.cls-6{fill:#73b452;}</style></defs><title>Be Fast-Tracked</title><g id="Layer_2" data-name="Layer 2"><g id="Layer_3" data-name="Layer 3"><rect class="cls-1" width="235" height="235"/><polygon class="cls-2" points="0 0 235 235 0 235 0 0"/><path class="cls-3" d="M126.42292,120.56662l29.08093-41.47414a1.23011,1.23011,0,0,0-1.79919-1.63188L109.613,105.31982a11.58444,11.58444,0,1,0,16.81,15.2468Z"/><path class="cls-4" d="M79.68985,182.99922a2.35061,2.35061,0,0,1-1.15123-.30066,79.19354,79.19354,0,1,1,77.30831,0,2.35287,2.35287,0,0,1-2.81788-.38962l-5.71322-5.714a2.3559,2.3559,0,0,1,3.33175-3.33175l4.4362,4.4362a74.48046,74.48046,0,1,0-75.782,0l4.33879-4.338a2.3559,2.3559,0,0,1,3.33175,3.33175l-5.61581,5.61581A2.35242,2.35242,0,0,1,79.68985,182.99922Z"/><path class="cls-5" d="M117.19891,57.10132a1.57036,1.57036,0,0,1-1.57077-1.57077v-9.621a1.57077,1.57077,0,1,1,3.14154,0v9.621A1.57036,1.57036,0,0,1,117.19891,57.10132Z"/><path class="cls-6" d="M159.589,75.5272a1.57077,1.57077,0,0,1-1.11058-2.68135l6.80309-6.80309a1.5706,1.5706,0,1,1,2.22117,2.22117L160.6996,75.067A1.56568,1.56568,0,0,1,159.589,75.5272Z"/><path class="cls-6" d="M74.785,75.5272a1.56568,1.56568,0,0,1-1.11058-.46019l-6.80309-6.80309a1.5706,1.5706,0,0,1,2.22117-2.22117l6.80309,6.80309A1.57077,1.57077,0,0,1,74.785,75.5272Z"/><path class="cls-5" d="M61.53472,116.59427h-9.621a1.57077,1.57077,0,1,1,0-3.14154h9.621a1.57077,1.57077,0,1,1,0,3.14154Z"/><path class="cls-5" d="M183.8585,116.59427h-9.621a1.57077,1.57077,0,0,1,0-3.14154h9.621a1.57077,1.57077,0,1,1,0,3.14154Z"/></g></g></svg>