<svg xmlns="http://www.w3.org/2000/svg" viewBox="0 0 235 235"><defs><style>.cls-1{fill:#fff;}.cls-2{fill:#f2f2f2;}.cls-3{fill:#f0d3a8;}.cls-4{fill:#3a302d;}.cls-5{fill:#28201d;}.cls-6{fill:none;}.cls-7{fill:#355c6e;}.cls-8{fill:#477289;}.cls-9{fill:#40687e;}.cls-10{fill:#2f5464;}.cls-11{fill:#d12026;}.cls-12{fill:#d2d7d7;}.cls-13{fill:#e7ecec;}.cls-14{fill:#abbbc8;}.cls-15{fill:#bbcdda;}</style></defs><title>be mentored</title><g id="Layer_2" data-name="Layer 2"><g id="Layer_3" data-name="Layer 3"><rect class="cls-1" width="235" height="235"/><polygon class="cls-2" points="0 0 235 235 0 235 0 0"/><path class="cls-3" d="M173.6676,181.60828q1.80817-1.3797,3.54517-2.84509c.10254-.08643.20569-.17187.30774-.25879q1.76331-1.50037,3.44971-3.08569c.06921-.06494.13965-.12842.20862-.19373q1.77448-1.67871,3.4613-3.44629c-1.31543-9.309-3.90967-17.61133-8.88269-21.97449l-32.00891-12.94873v.00073l-3.12183-.74951c-1.03223-.25146-2.06348-.5293-3.09314-.79431-.59143-3.43005-.92114-6.90857-1.26208-10.37439-.33887-3.4657-.7229-6.93921-1.23242-10.38892L135,114.54736v-.0105c0-.33276.55676-.68311.79944-1.03918a8.39073,8.39073,0,0,0,.98755-1.82166,31.46735,31.46735,0,0,0,1.45489-4.6073c.05908-.22107.1232-.44458.18228-.6665q.34717-1.32916.65218-2.66772c.21-.89319.40678-1.788.60636-2.68445.39587-1.78882.75893-3.58716,1.10378-5.39514.09424-.451.16-.902.27644-1.337.00488-.01282.00821-.02637.01456-.03992a6.30465,6.30465,0,0,0,.254.59314,2.281,2.281,0,0,0,.43266.63379,1.73844,1.73844,0,0,0,.26174.21533c.2644.17651.60206.45288.90931.42664.31287,0,.63941-.14685.86207-.14685h.004a16.24556,16.24556,0,0,1,.98022-1.7594c.13721-.27466.26819-.65265.39819-.92731.13428-.27454.26831-.59848.41211-.86337a20.7412,20.7412,0,0,0,1.55078-3.33788,16.22538,16.22538,0,0,0,.71924-3.59618c.11743-1.21313.12378-2.4425.1405-3.655.00964-1.22693-.00635-2.44269-.10461-3.66876-.01672-.202-.03589-.41031-.06226-.61624-.01916-.20276-.04626-.40633-.07812-.61226-.00635-.04236-.01685-.08183-.02-.125-.02637-.1499-.05188-.3105-.08862-.46065a5.97651,5.97651,0,0,0-.24109-.88926,3.16659,3.16659,0,0,0-.19959-.428,1.66522,1.66522,0,0,0-.20911-.289.79149.79149,0,0,0-.08606-.08461c-.11987-.10767-.27783.01757-.44873.001-.17236-.01294-.332.312-.47571.312h-.0033c-.06226,0-.12439-.14526-.1803-.10937-.04956.02954-.09729-.04114-.14368-.00842s-.095.01691-.14062.05609c-.04614.03992-.09167.0524-.13721.09232.03906-1.77295.11646-3.41026.18286-4.45665.05823-.96509.10767-1.73632.09814-2.4818-.08545-7.73877-1.89575-14.18927-5.27954-18.9212a20.80631,20.80631,0,0,0-2.70752-3.11075c-4.76221-4.47729-11.552-6.583-20.176-6.29475-.26819.00867-.5332.01229-.80457.02584-.63379-.01672-1.25574-.0201-1.87109-.01375-8.12439.0918-14.49585,2.361-18.96594,6.7521-5.00806,4.92749-7.60229,12.60078-7.49048,22.20027.00952.74548.07178,1.51108.15649,2.47519.08533,1.04016.19629,2.31493.27136,4.04467a2.20213,2.20213,0,0,0-.4502-.28174.94947.94947,0,0,0-.47742-.09424.7549.7549,0,0,0-.44849.20605,1.99317,1.99317,0,0,0-.48059.80371c-.10144.29456.06024.59546.0058.89648A6.63481,6.63481,0,0,0,87,78.08423v.00964c0,.1676-.26617.33679-.27728.50281-.08154,1.22375-.20023,2.44348-.177,3.66235.03271,1.21655-.001,2.43945.12987,3.64941a16.01586,16.01586,0,0,0,.739,3.573,20.08341,20.08341,0,0,0,1.57769,3.29028c.29456.52917.54165,1.08472.82278,1.62744a6.20438,6.20438,0,0,0,1.00044,1.54077,1.26035,1.26035,0,0,0,.86826.34,1.47381,1.47381,0,0,0,.90728-.2323,2.89919,2.89919,0,0,0,.92874-1.45837c.00635.01355.209.9292.30629,1.38647.36719,1.78809.75489,3.58655,1.17408,5.37219.42224,1.78162.84052,3.57043,1.32733,5.33923a37.22335,37.22335,0,0,0,1.68747,5.23083,7.93034,7.93034,0,0,0,.99608,1.81445c.24561.36255.5039.70532.77172,1.04492-.07568.55981-.14038,1.11963-.20728,1.67944-.34888,2.90381-.60425,5.81665-.84851,8.72937-.29382,3.473-.57874,6.95093-1.12476,10.39124-1.02576.27783-2.04981.46814-3.0802.73572L91.40723,137h-.00171s-32.43518,12.4032-32.163,12.70325c-4.97375,4.36316-7.56726,12.716-8.88269,22.025a92.67743,92.67743,0,0,0,119.077,12.91322l.00342.00948c.05774-.03906.1123-.07949.17-.11879q1.894-1.29034,3.72009-2.6692C173.44312,181.77784,173.5553,181.69385,173.6676,181.60828Zm-43.194-62.04187c-.05383.05151-.1084.10205-.16248.15332Zm-24.61218,1.43188q-1.44342-1.24988-2.80017-2.59595C103.96594,119.3,104.90039,120.1604,105.86145,120.99829Zm-5.27942-5.26245c-.10645-.12415-.21936-.24243-.32422-.36792l-.03223-.04065.03223.03992C100.36267,115.49268,100.47559,115.61145,100.582,115.73584Z"/><path class="cls-4" d="M97.82575,55.74511c-.00965-.02951-.016-.05509-.02322-.08386l-.00556-.02951a31.0002,31.0002,0,0,1-1.15022-8.01659c0-.5085.00956-.94514.02951-1.29711v-.01757l.00082-.02714c.00155-.01913.00237-.03989.00237-.05746a.3294.3294,0,0,0-.15326-.27783,5.14012,5.14012,0,0,0-2.72672-.77186c-7.105,0-7.465,14.27948-7.465,17.142a41.03012,41.03012,0,0,0,2.17433,13.2378.3362.3362,0,0,0,.10217.15808c.07986.06858.15645.14206.23385.21546l.05354.05272c.03188.03188.06384.063.095.0958.12531.13.24505.26017.35842.38311.17876.19478.348.37837.50123.51969.01683.01676.03833.03588.06146.055a.95165.95165,0,0,0,.0886.075,16.97222,16.97222,0,0,1,2.15283,5.92923c.111.48373.22593.98421.348,1.47276a.32774.32774,0,0,0,.3169.24824.3323.3323,0,0,0,.05591-.00556.3256.3256,0,0,0,.26974-.3536c-.1325-1.36021-.28813-3.14342-.3057-4.88919-.03433-3.74763.14051-7.67811,2.62936-10.91013a.32887.32887,0,0,0,.06547-.2435c-.07267-.54283-.17484-1.12227-.28339-1.73376a23.06418,23.06418,0,0,1-.45022-3.57843,8.81327,8.81327,0,0,1,2.92632-6.95015A.32584.32584,0,0,0,97.82575,55.74511Z"/><path class="cls-5" d="M144.14925,44.61142a33.0152,33.0152,0,0,0-23.04-10.18217A48.11815,48.11815,0,0,0,107.55132,36.523c-6.389,2.05221-10.24445,5.27385-11.45933,9.57632a.34387.34387,0,0,0-.06948.18358c-.01994.364-.02951.811-.02951,1.33226a31.66863,31.66863,0,0,0,1.16616,8.16511.32191.32191,0,0,0,.06228.13969c.0255.0327.0519.06621.08059.0989,3.71739,4.63057,9.11417,6.88157,16.497,6.88157,4.73511,0,7.26075.20116,9.28983.364,1.50547.11975,2.80494.22347,4.59542.22347,2.42175,0,8.93451,3.335,10.99473,5.12942,2.47055,3.22884,2.64457,7.14738,2.61024,10.88626-.01757,1.74814-.17247,3.53053-.3057,4.88837a.32728.32728,0,0,0,.28412.356.36919.36919,0,0,0,.04152.00319.32669.32669,0,0,0,.32246-.27775,19.34576,19.34576,0,0,1,1.47751-4.64733c.36088-.86929.73442-1.76645,1.05688-2.76023a7.0168,7.0168,0,0,0,.60184-.6083,10.13658,10.13658,0,0,1,.75436-.76148.324.324,0,0,0,.10773-.194c.20435-1.22526.4199-2.4833.63944-3.76365.91073-5.313,1.85187-10.80641,2.34835-16.07315C148.96014,52.02053,147.41479,48.19868,144.14925,44.61142Z"/><path class="cls-6" d="M68.34644,171.19019c.00342-.09766.0061-.18884.00879-.28137C68.35254,171.00134,68.34985,171.09155,68.34644,171.19019Z"/><path class="cls-6" d="M68.34692,168.91382c-.02661-.512-.07764-1.01648-.13977-1.51636C68.26929,167.89734,68.32031,168.40186,68.34692,168.91382Z"/><polygon class="cls-6" points="145.699 161.484 117.5 200.571 145.7 161.484 145.699 161.484"/><path class="cls-6" d="M117,201h.47412a56.92055,56.92055,0,0,0-6.74744,0h13.50916A60.09181,60.09181,0,0,0,117,200.7854Z"/><path class="cls-6" d="M65.384,158.47437a31.66119,31.66119,0,0,0-1.682-2.95386A31.5781,31.5781,0,0,1,65.384,158.47437Z"/><path class="cls-6" d="M170.26868,157.234c.37488-.673.7251-1.24353,1.02942-1.7135C170.9939,155.99048,170.64355,156.561,170.26868,157.234Z"/><path class="cls-6" d="M166.65381,168.91382c.02661-.512.07751-1.01636.13965-1.51611C166.73132,167.89746,166.68042,168.40186,166.65381,168.91382Z"/><path class="cls-6" d="M68.12439,175.38709l-.00159.02112c-.01514.22571-.02905.4563-.04419.68945.006-.08838.01282-.18384.01868-.27112C68.10645,175.6792,68.11536,175.53223,68.12439,175.38709Z"/><path class="cls-6" d="M68.2959,172.3833c.00818-.17017.01587-.33679.02295-.49707C68.31152,172.04749,68.30444,172.21143,68.2959,172.3833Z"/><path class="cls-6" d="M68.25684,173.15161c-.00574.10706-.01208.21948-.01831.3291.00659-.11719.01331-.23486.01953-.34863Z"/><path class="cls-6" d="M68.186,174.38062l-.00562.09448-.00964.15405c-.00745.12915-.01575.26318-.02393.39526.00964-.15454.01941-.311.02869-.4624C68.17944,174.49878,68.18237,174.44312,68.186,174.38062Z"/><path class="cls-6" d="M68.0686,176.23193c-.00854.12878-.01758.26147-.02625.39209.011-.15894.02234-.321.03284-.47681C68.073,176.17554,68.07129,176.20361,68.0686,176.23193Z"/><path class="cls-6" d="M68.292,172.45557c-.00134.032-.0033.06653-.00488.099l.0072-.142Z"/><path class="cls-6" d="M59.24341,149.8042s.0437.04907.11914.13452C59.28711,149.85327,59.24341,149.8042,59.24341,149.8042Z"/><path class="cls-7" d="M166.87329,175.35962c.00952.15405.019.31042.03027.46765.03516.53552.07422,1.09521.11328,1.6676.009.12537.0188.25928.02771.38623-.10144-1.44312-.18982-2.793-.25891-3.9895.01294.22339.02466.43677.03882.67041C166.84045,174.82312,166.8573,175.08813,166.87329,175.35962Z"/><path class="cls-7" d="M166.64539,170.90015c.00305.10156.006.20276.00977.31055C166.65137,171.10193,166.64844,171.00256,166.64539,170.90015Z"/><path class="cls-7" d="M167.15869,179.46729q-.01245-.16827-.02454-.33545c.006.08008.01074.155.01685.2356C167.15332,179.40039,167.15625,179.43408,167.15869,179.46729Z"/><path class="cls-7" d="M166.70679,172.42114c.02026.4198.04431.869.07153,1.34326C166.75122,173.29053,166.72717,172.84106,166.70679,172.42114Z"/><path class="cls-7" d="M166.68005,171.83691q.01172.27466.026.56909C166.69653,172.209,166.688,172.02051,166.68005,171.83691Z"/><path class="cls-8" d="M167.62134,201c-.0752-3.89661-.14941-17.40527-.22131-18.33276l-.77026-.752c.005,6.44775.03967,14.07776.18494,19.08472Z"/><path class="cls-9" d="M154.19739,141.0813l-11.92712,10.18848,4.9043,8.17383-1.47437,2.04028L117.50049,200.5708a56.642,56.642,0,0,1,6.73535.4292H166.8147c-.14526-5.007-.17993-12.637-.18494-19.08472-.00452-5.76514.01453-10.58044-.00085-11.70825q-.00879-.65149.0249-1.29321c.02661-.512.07751-1.01636.13965-1.51611a28.78442,28.78442,0,0,1,3.47522-10.1637c.37488-.673.72522-1.24353,1.02942-1.7135.14355-.22156.27991-.42773.39807-.59888a60.44887,60.44887,0,0,1,4.05969-5.11743l.001.00085.00061-.00085Z"/><path class="cls-9" d="M167.39465,182.59619c-.0824-1.06262-.1615-2.111-.236-3.12891-.00244-.0332-.00537-.06689-.00769-.09985-.0061-.08057-.01086-.15552-.01685-.2356-.03064-.423-.06079-.84119-.0896-1.25073-.00891-.127-.01868-.26086-.02771-.38623-.03906-.57239-.07812-1.13208-.11328-1.6676-.01123-.15723-.02075-.3136-.03027-.46765-.016-.27148-.03284-.5365-.04883-.79761-.01416-.23364-.02588-.447-.03882-.67041-.00244-.04224.1416-.08533.13928-.1272-.02722-.47424.07507-.92346.07507-1.34326V172.406c0-.19641-.16516-.386-.173-.56909-.0094-.218-.09131-.428-.09839-.62622-.00378-.10779-.04346-.209-.04651-.31055-.00745-.24829-.03192-.48437-.03485-.69312.01538,1.12781-.01285,5.94312-.00833,11.70825l.76567.752C167.40279,182.64331,167.39648,182.62036,167.39465,182.59619Z"/><path class="cls-10" d="M184.64014,171.77893l.00024-.00024c-1.31689-9.30847-3.90942-17.61023-8.8833-21.97363a60.5106,60.5106,0,0,0-4.06079,5.11658c-.11816.17114-.25464.37732-.39819.59888-.30432.47-.65454,1.04053-1.02942,1.7135a28.78684,28.78684,0,0,0-3.47522,10.1637c-.06213.49976-.113,1.00415-.13965,1.51611q-.033.64142-.0249,1.29321c.00269.207.00928.44751.01648.69312.00305.10242.006.20178.00977.31055.007.19727.16248.40918.17188.62622.00793.18359.173.37207.173.56909v.01514c0,.41992-.10217.86938-.07507,1.34326.00244.042-.06848.08484-.066.1272.06909,1.19653.12085,2.54639.22241,3.9895.02856.41064.03955.82581.07117,1.25073.00818.11133.00708.22327.01538.33545.011.15454.0177.3103.03088.46606.06372.87012.12854,1.7616.19824,2.66284.00183.02332.00244.04626.00415.06958l2.03955,1.99121-.00037.00024L167.4,182.66577l-.00537-.06958.00537.071c.0719.92749.14612,14.43616.22131,18.33276h18.65771C187.06165,195.47266,186.73438,186.36328,184.64014,171.77893Z"/><path class="cls-10" d="M166.79346,167.39771a28.78684,28.78684,0,0,1,3.47522-10.1637A28.78442,28.78442,0,0,0,166.79346,167.39771Z"/><path class="cls-10" d="M166.77832,173.7644l.00732.1272Z"/><path class="cls-10" d="M167,172.406v0Z"/><path class="cls-10" d="M167.04456,177.8811c.02881.40955.059.82776.0896,1.25073C167.10254,178.70691,167.07324,178.29175,167.04456,177.8811Z"/><path class="cls-10" d="M167.19409,179.93335c-.01318-.15576-.02441-.31152-.0354-.46606.07446,1.01794.15356,2.06628.236,3.12891C167.325,181.69495,167.25781,180.80347,167.19409,179.93335Z"/><path class="cls-10" d="M171.69617,154.92163a60.54982,60.54982,0,0,1,4.06067-5.11658l-.00061-.00061A60.38894,60.38894,0,0,0,171.69617,154.92163Z"/><path class="cls-10" d="M166.65515,171.21069c.00708.19824.0155.4082.0249.62622C166.67065,171.61987,166.66211,171.408,166.65515,171.21069Z"/><path class="cls-10" d="M171.2981,155.52051c.14355-.22156.27991-.42773.39807-.59888C171.578,155.09277,171.44165,155.299,171.2981,155.52051Z"/><path class="cls-10" d="M166.62891,170.207c.00293.20874.009.44482.01648.69312C166.63818,170.65454,166.63159,170.41406,166.62891,170.207Z"/><polygon class="cls-11" points="125.734 174.45 121.766 150.615 124.688 144.999 117 137.805 117 200.571 125.734 174.45"/><path class="cls-10" d="M154.4751,140.84253s-6.40173-3.90332-10.02417-4.94019a42.1325,42.1325,0,0,0-5.52844-1.2749l-4.99207,15.3667-7.94568,24.4563-8.48425,26.12036,28.199-39.08691h.00073l1.47437-2.04028-4.9043-8.17383,11.92712-10.18848Z"/><polygon class="cls-12" points="137.621 138.628 138.922 134.627 138.608 135.589 137.621 138.628"/><polygon class="cls-13" points="136.676 128.945 120.177 136.569 117.5 137.805 125 144.999 129.64 149.445 131.362 147.487 136.722 141.393 137.621 138.628 138.608 135.589 138.922 134.627 136.676 128.945"/><polygon class="cls-14" points="133.93 149.994 138.922 134.627 137.621 138.628 133.93 149.994"/><polygon class="cls-15" points="136.722 141.393 131.362 147.487 129.64 149.445 125 144.999 121.891 150.615 125.985 174.45 133.93 149.994 137.621 138.628 136.722 141.393"/><path class="cls-8" d="M63.304,154.92163c.11816.17114.25464.37732.39807.59888a31.66119,31.66119,0,0,1,1.682,2.95386,27.91583,27.91583,0,0,1,2.82312,8.9231c.06213.49988.11316,1.00439.13977,1.51636q.03314.64142.025,1.29321c-.00159.12927-.00476.26978-.00793.415-.00171.03589-.00244.07251-.0033.11011-.00183.0564-.177.11853-.17871.17664-.00269.09253-.182.18372-.182.28137v.033c0,.15637.16089.3208.15369.49-.00244.04248.08234.08472.08075.12866-.00061.0144-.10611.03-.10672.04443-.00708.16028-.12772.3269-.12772.49707v.0293c0,.04614.1424.09521.14.142-.00684.14758.05917.29651.05136.4502-.00269.04224.03215.08459.03.12732-.00623.11377.00546.23145-.00114.34863-.00562.10046-.00179.198-.0074.30151-.00171.02954.00045.06152-.00028.0918-.01.16553-.01809.33545-.02871.50659-.00366.0625-.00544.11816-.00935.1814-.00928.15137-.01847.30786-.02811.4624-.00647.10632-.01253.21008-.01888.31836-.00171.01453-.0023.02954-.00315.04431-.009.14514-.01787.29211-.027.43945-.00586.08728-.01266.18274-.01864.27112l-.00206.03223-.00133.01733c-.0105.15576-.02185.31787-.03283.47681-.00928.139-.01819.27612-.028.41736-.001.012.02185.024.02185.03674-.019.27856-.03625.562-.03625.84851v.02075c0,2.26318.14771,18.31921.041,23.05261h42.68567a56.92055,56.92055,0,0,1,6.74744,0H117v-.2146L89.05042,161.59119l-1.34912-2.09393,4.96686-8.20065-11.896-10.20189-21.54442,8.71619a1.66288,1.66288,0,0,1,.127.13117A59.10159,59.10159,0,0,1,63.304,154.92163Z"/><path class="cls-7" d="M67.60083,182.6665c.07178-.92517.1405-1.83984.20593-2.73315.016-.18921.02869-.37915.04138-.56592.04956-.641.09277-1.2644.13428-1.87354.02075-.29858.03992-.58.05994-.86987.00867-.13062.0177-.26331.02625-.39209.00269-.02832.00439-.0564.00659-.08472l.00342-.04956c.01514-.23315.02905-.46375.04419-.68945l.00159-.02112.00171-.02747c.00745-.11426.01379-.22327.02075-.33521.00818-.13208.01648-.26611.02393-.39526l.00964-.15405.00562-.09448c.0188-.31006.03625-.60925.05249-.8999.00623-.10962.01257-.222.01831-.3291l.00122-.01953c.01074-.20142.01965-.38721.02905-.57751.00159-.03247.00354-.067.00488-.099l.00232-.043.00159-.0293c.00854-.17187.01563-.33582.02295-.49707.0105-.24292.02-.47754.02759-.696.00342-.09863.0061-.18884.00879-.28137.00745-.24927.01416-.49231.01672-.70178q.009-.65149-.025-1.29321c-.02661-.512-.07764-1.01648-.13977-1.51636a27.91787,27.91787,0,0,0-2.82312-8.9231,31.5781,31.5781,0,0,0-1.682-2.95386c-.14355-.22156-.27991-.42773-.39807-.59888a59.79973,59.79973,0,0,0-3.94141-4.98291c-.07544-.08545-.11914-.13452-.11914-.13452-4.973,4.36316-7.56714,12.66626-8.88281,21.97607C48.28943,187.31848,48.28882,196.1875,49.49573,201H67.37891C67.45459,197.10339,67.52832,183.59534,67.60083,182.6665Z"/><path class="cls-7" d="M68.14685,175.02441c-.007.11194-.01331.22095-.02075.33521l-.00171.02747c.00085-.01477.00159-.02979.0033-.04431C68.134,175.2345,68.14038,175.13074,68.14685,175.02441Z"/><path class="cls-7" d="M68.28711,172.55457c-.0094.19031-.01831.3761-.02905.57751.0022-.04272.00415-.08508.00684-.12732C68.27271,172.85107,68.28027,172.70215,68.28711,172.55457Z"/><path class="cls-7" d="M68.07861,176.09766l-.00342.04956.00134-.01733Z"/><path class="cls-7" d="M68.22192,173.78223c.00562-.10352.011-.201.0166-.30151-.01624.29065-.03369.58984-.05249.8999.01062-.17114.021-.34106.031-.50659C68.21777,173.84375,68.22021,173.81177,68.22192,173.78223Z"/><path class="cls-7" d="M63.702,155.52051c-.14343-.22156-.27991-.42773-.39807-.59888C63.42212,155.09277,63.55847,155.299,63.702,155.52051Z"/><path class="cls-7" d="M68.2959,172.3833l-.00159.0293.001-.0177Z"/><path class="cls-7" d="M63.304,154.92163a59.7488,59.7488,0,0,0-3.94141-4.98291A59.79973,59.79973,0,0,1,63.304,154.92163Z"/><path class="cls-7" d="M68.20715,167.39746a27.91583,27.91583,0,0,0-2.82312-8.9231A27.91787,27.91787,0,0,1,68.20715,167.39746Z"/><path class="cls-7" d="M68,177.94739v-.02075c0-.2865.01721-.56995.03625-.84851,0-.0127-.011-.02478-.01007-.03674.00977-.14124.01279-.27832.02206-.41736-.02.28992-.04213.57129-.06288.86987q-.06226.9137-.13575,1.87354c-.0127.18677-.02613.37671-.04212.56592-.06543.89331-.13452,1.808-.2063,2.73315-.07251.92883-.14661,14.43689-.22229,18.3335H68.041C68.14771,196.2666,68,180.21057,68,177.94739Z"/><path class="cls-7" d="M68.364,170.62207c.00317-.14526.00635-.28577.00793-.415-.00256.20947-.00928.45251-.01672.70178l.00549-.17664C68.36157,170.69458,68.3623,170.658,68.364,170.62207Z"/><path class="cls-7" d="M68.32642,171.71313c.0072-.16919.01355-.33362.019-.49l.001-.02881v-.00415c-.00757.21851-.01709.45313-.02759.696l.002-.04443C68.32239,171.79785,68.324,171.75562,68.32642,171.71313Z"/><polygon class="cls-11" points="113.109 150.615 108.766 174.45 117 200.571 117 137.805 109.749 144.999 113.109 150.615"/><path class="cls-7" d="M87.82642,159.4436l1.47424,2.04028,28.19983,39.08691-8.48437-26.12036-7.94556-24.4563-4.99219-15.3667a42.136,42.136,0,0,0-5.52856,1.2749c-3.62231,1.03687-10.02417,4.94019-10.02417,4.94019l.27783.23877,11.92725,10.18848Z"/><polygon class="cls-13" points="97.16 137.953 98.278 141.392 103.639 147.487 105.36 149.445 110 144.999 117.5 137.805 114.824 136.569 98.325 128.945 96.078 134.627 96.392 135.589 97.16 137.953"/><polygon class="cls-13" points="96.392 135.589 96.078 134.627 97.16 137.953 96.392 135.589"/><polygon class="cls-15" points="110 144.999 105.36 149.445 103.639 147.487 98.278 141.392 97.16 137.953 101.071 149.994 109.016 174.45 113.109 150.615 110 144.999"/><polygon class="cls-15" points="97.16 137.953 96.078 134.627 101.071 149.994 97.16 137.953"/></g></g></svg>