<svg xmlns="http://www.w3.org/2000/svg" viewBox="0 0 153.93605 44.88938"><defs><style>.cls-1{fill:#fff;}.cls-2{fill:#c00;}</style></defs><title>DBS logo</title><g id="Layer_2" data-name="Layer 2"><g id="Layer_3" data-name="Layer 3"><rect class="cls-1" x="7.46739" y="7.47194" width="29.94749" height="29.94749"/><path class="cls-2" d="M41.518,22.44146v-.00423a20.67771,20.67771,0,0,1,2.3094-10.22955c.63829-1.34562,2.03323-3.32108-.02536-5.60934a3.84755,3.84755,0,0,0-4.85692-.65661,3.8429,3.8429,0,0,0-.658-4.85833c-2.29249-2.06-4.26231-.66365-5.61357-.031A20.58545,20.58545,0,0,1,22.44113,3.37167h-.00282A20.572,20.572,0,0,1,12.20877,1.05241c-1.34562-.63124-3.32249-2.02759-5.60934.031a3.85111,3.85111,0,0,0-.66083,4.85833,3.84207,3.84207,0,0,0-4.85692.65661c-2.05859,2.28826-.66083,4.26372-.02536,5.60934A20.66594,20.66594,0,0,1,3.36289,22.44146h0A20.65616,20.65616,0,0,1,1.05631,32.67664c-.63547,1.347-2.03323,3.32249.02536,5.6178a3.86151,3.86151,0,0,0,4.85692.6552,3.83869,3.83869,0,0,0,.66083,4.85692c2.28685,2.06,4.26231.66365,5.60934.02113a20.665,20.665,0,0,1,10.23237-2.3094h0a20.64976,20.64976,0,0,1,10.22955,2.3094c1.35407.64252,3.3239,2.03886,5.61639-.02113a3.84052,3.84052,0,0,0,.6552-4.85692,3.8524,3.8524,0,0,0,4.85974-.6552c2.05859-2.29531.66365-4.27076.02536-5.61639A20.67523,20.67523,0,0,1,41.518,22.44146ZM36.44265,36.4782,25.572,27.35615a5.24794,5.24794,0,0,0-3.13227-1.433,5.28064,5.28064,0,0,0-3.13509,1.433l-10.865,9.122-.04086-.03381,9.12909-10.86783a5.267,5.267,0,0,0,1.43157-3.13509,5.24741,5.24741,0,0,0-1.43157-3.128L8.39876,8.43713l.04086-.03663,10.86783,9.12628a5.26489,5.26489,0,0,0,3.13227,1.4358,5.24422,5.24422,0,0,0,3.13227-1.4358l10.865-9.122.03523.03523-9.115,10.87347a5.24182,5.24182,0,0,0-1.4358,3.128,5.2613,5.2613,0,0,0,1.4358,3.13509l9.115,10.86784Z"/><path d="M150.95438,2.59248l.38748-.00423.1409,7.11841L151.0502,9.701c-.7017-2.88851-3.48734-5.62907-9.0685-5.91933-6.6027-.34239-9.46163,3.5902-9.49122,7.3044-.038,4.95273,3.81424,5.97287,9.525,7.36217,2.69688.65661,12.67281,1.96137,11.87529,13.17442-.55515,7.83138-7.31427,11.55826-16.8858,11.25673a45.48579,45.48579,0,0,1-9.53348-1.67393c-1.03986-.28744-1.29912.05918-1.72606.81865l-.44526.024.01409-7.682.44244.02818a5.72632,5.72632,0,0,0,1.68379,3.45775c1.03986.90178,3.43944,3.13791,8.73175,3.19145,5.1965.06482,9.49685-2.13186,10.08019-7.94129.1564-1.57248-.02254-5.15564-3.51975-6.79574-2.73774-1.28362-10.33663-2.13045-14.0297-5.35713a9.58877,9.58877,0,0,1-3.67616-8.72893C126.0005,4.19172,132.699,2.18385,138.7184,2.05563a44.05462,44.05462,0,0,1,9.68144,1.06382,3.65475,3.65475,0,0,0,1.943-.04932A1.24417,1.24417,0,0,0,150.95438,2.59248ZM113.30092,21.08034c9.78852,2.42917,10.38031,9.494,10.238,11.47794-.43539,8.84166-7.94551,9.85615-10.96083,9.85615H89.49116l.02536-.44948c1.67534-.22263,2.9336-1.14695,2.9336-4.089L92.591,7.4198c.03523-3.30981-.83978-4.313-2.6701-4.52721l-.03241-.4213h17.46209c3.1999,0,12.84611-.6397,13.66616,8.23154C121.67055,17.79871,113.8758,20.77176,113.30092,21.08034Zm2.57006,11.5343c.17895-8.57816-6.11519-10.85516-12.63758-11.213-.13245-.00845-.08031-.33535.01691-.35085,2.122-.08172,10.54517-1.05818,10.19291-9.10232-.341-7.83138-6.28567-8.00469-8.4598-8.03287-1.77256-.01832-2.16-.01832-2.9026.01268-1.25826.04932-1.57388.13949-1.56825,1.51611,0,.17754-.28039,14.11424-.44385,23.9098-.08313,5.32613-.09582,9.43908-.09582,9.43908.02254.96519-.10145,1.95855,2.30376,2.07409a34.87668,34.87668,0,0,0,7.923-.25363C112.247,40.17127,115.7484,38.68051,115.871,32.61464ZM69.86621,2.46989c8.31326-.04086,19.26142,5.6657,19.22338,19.9138-.03523,12.39382-8.97411,20.02652-17.255,20.02652l-20.97339.00422.02536-.44526C52.073,41.7691,53.382,41.028,53.606,40.24171c.69324-2.99.5453-30.3082.11272-34.803a2.89411,2.89411,0,0,0-2.60107-2.53343l-.02536-.4368C51.09232,2.46989,68.00066,2.47976,69.86621,2.46989Zm3.803,37.35334c3.71561-1.33435,8.333-7.68625,7.57071-17.70021-.73552-9.68848-4.43422-17.28878-14.26078-18.00175,0,0-1.85992-.13386-3.42112-.14513-1.6697-.00845-2.03886-.062-2.1544,1.71479-.22263,3.34081-.28885,29.38951-.069,33.15444.03241.51148.08736,1.75424,2.23754,1.96278A22.52833,22.52833,0,0,0,73.66918,39.82323Z"/></g></g></svg>