<?xml version="1.0" encoding="UTF-8"?>
<svg width="304px" height="76px" viewBox="0 0 304 76" version="1.1" xmlns="http://www.w3.org/2000/svg" xmlns:xlink="http://www.w3.org/1999/xlink">
    <!-- Generator: Sketch 46.1 (44463) - http://www.bohemiancoding.com/sketch -->
    <title>i be doing button clicking</title>
    <desc>Created with Sketch.</desc>
    <defs></defs>
    <g id="Page-1" stroke="none" stroke-width="1" fill="none" fill-rule="evenodd">
        <g id="i-be-doing-button-clicking">
            <rect id="Rectangle-path" fill="#932832" fill-rule="nonzero" x="0" y="0" width="304" height="74" rx="10"></rect>
            <rect id="Rectangle-path" fill="#CE3A49" fill-rule="nonzero" x="0" y="2" width="304" height="74" rx="10"></rect>
            <path d="M114.272,30.344 L114.272,33.056 L104,33.056 L104,30.344 L107.888,30.344 C107.528,29.456 107,28.4 106.544,27.56 L109.232,26.288 C109.88,27.32 110.6,28.664 110.96,29.576 L109.52,30.344 L114.272,30.344 Z M113.264,36.368 L113.264,33.776 L105.032,33.776 L105.032,36.368 L113.264,36.368 Z M113.216,37.088 L105.032,37.088 L105.032,39.68 L113.216,39.68 L113.216,37.088 Z M110.336,43.208 L108.008,43.208 L108.008,45.176 L110.336,45.176 L110.336,43.208 Z M113.312,40.472 L113.312,47.936 L108.008,47.936 L108.008,48.896 L105.08,48.896 L105.08,40.472 L113.312,40.472 Z M125.936,34.232 L125.936,37.664 L121.736,37.664 L121.736,49.208 L118.088,49.208 L118.088,37.664 L114.152,37.664 L114.152,34.232 L118.088,34.232 L118.088,26.84 L121.736,26.84 L121.736,34.232 L125.936,34.232 Z M128.492,48.584 L150.644,48.584 L150.644,46.376 L128.492,46.376 L128.492,48.584 Z M144.596,42.056 L144.596,41.432 L141.068,41.432 L141.068,42.056 L144.596,42.056 Z M144.596,44.216 L144.596,43.568 L141.068,43.568 L141.068,44.216 L144.596,44.216 Z M134.684,43.568 L134.684,44.216 L137.852,44.216 L137.852,43.568 L134.684,43.568 Z M134.684,41.432 L134.684,42.056 L137.852,42.056 L137.852,41.432 L134.684,41.432 Z M131.276,39.848 L148.196,39.848 L148.196,45.8 L131.276,45.8 L131.276,39.848 Z M141.164,31.904 L141.164,32.48 L144.644,32.48 L144.644,31.904 L141.164,31.904 Z M141.164,29.552 L141.164,30.104 L144.644,30.104 L144.644,29.552 L141.164,29.552 Z M141.164,37.16 L150.692,37.16 L150.692,39.248 L128.54,39.248 L128.54,37.16 L137.612,37.16 L137.612,36.584 L130.196,36.584 L130.196,34.808 L137.612,34.808 L137.612,34.232 L131.012,34.232 L131.012,32.48 L137.612,32.48 L137.612,31.904 L128.636,31.904 L128.636,30.104 L137.612,30.104 L137.612,29.552 L131.156,29.552 L131.156,27.8 L137.612,27.8 L137.612,26.384 L141.164,26.384 L141.164,27.8 L148.172,27.8 L148.172,30.104 L150.476,30.104 L150.476,31.904 L148.172,31.904 L148.172,34.232 L141.164,34.232 L141.164,34.808 L149.108,34.808 L149.108,36.584 L141.164,36.584 L141.164,37.16 Z M166.16,32.768 L170.024,32.768 C169.472,32.24 168.776,31.64 168.2,31.208 L169.256,30.32 L167.984,30.32 C167.408,31.256 166.784,32.096 166.16,32.768 Z M167.984,37.496 L171.056,37.496 L171.056,36.992 L167.984,36.992 L167.984,37.496 Z M171.056,34.712 L167.984,34.712 L167.984,35.192 L171.056,35.192 L171.056,34.712 Z M162.872,45.176 L165.896,45.176 L165.896,44.48 L162.872,44.48 L162.872,45.176 Z M165.896,42.008 L162.872,42.008 L162.872,42.68 L165.896,42.68 L165.896,42.008 Z M155.48,32.768 L159.416,32.768 C158.888,32.216 158.264,31.64 157.736,31.184 L158.672,30.344 L157.592,30.344 C156.92,31.256 156.2,32.096 155.48,32.768 Z M157.64,37.496 L160.688,37.496 L160.688,36.992 L157.64,36.992 L157.64,37.496 Z M157.64,34.712 L157.64,35.192 L160.688,35.192 L160.688,34.712 L157.64,34.712 Z M175.568,27.728 L175.568,30.32 L171.728,30.32 C172.28,30.752 172.808,31.184 173.144,31.568 L171.776,32.768 L174.296,32.768 L174.296,45.848 C174.296,47.36 174.008,48.176 173.048,48.656 C172.088,49.16 170.792,49.208 169.016,49.184 C168.944,48.584 168.704,47.744 168.44,47.024 L162.872,47.024 L162.872,47.84 L159.752,47.84 L159.752,40.16 L168.944,40.16 L168.944,46.232 C169.664,46.256 170.336,46.232 170.576,46.232 C170.936,46.232 171.056,46.136 171.056,45.8 L171.056,39.416 L164.864,39.416 L164.864,32.768 L165.608,32.768 C164.96,32.192 163.952,31.376 163.304,30.992 C163.544,30.8 163.76,30.584 163.976,30.344 L161.024,30.344 C161.552,30.8 162.056,31.304 162.368,31.688 L161.216,32.768 L163.808,32.768 L163.808,39.416 L157.64,39.416 L157.64,49.184 L154.496,49.184 L154.496,32.768 L154.88,32.768 C154.328,32.12 153.44,31.16 152.888,30.68 C154.304,29.6 155.696,27.872 156.464,26.168 L159.512,27.104 C159.416,27.32 159.32,27.512 159.2,27.728 L164,27.728 L164,30.32 C165.032,29.192 165.92,27.68 166.424,26.168 L169.592,26.984 C169.496,27.224 169.4,27.488 169.304,27.728 L175.568,27.728 Z M183.044,39.032 L183.044,36.584 L186.74,36.584 L186.74,39.128 C186.74,42.32 186.212,46.496 181.484,49.232 C180.86,48.416 179.444,47.192 178.508,46.616 C182.588,44.408 183.044,41.408 183.044,39.032 Z M192.116,49.184 L192.116,36.536 L195.836,36.536 L195.836,49.184 L192.116,49.184 Z M189.02,26 L191.852,28.016 C191.708,28.232 191.54,28.448 191.372,28.664 C193.436,30.92 197.012,32.672 201.092,33.512 C200.252,34.304 199.124,35.84 198.596,36.848 C194.756,35.768 191.564,33.8 189.14,31.136 C186.476,33.68 182.948,35.912 179.54,37.232 C179.084,36.224 178.196,34.76 177.404,33.848 C182.084,32.528 186.764,29.384 189.02,26 Z" id="計畫簡介" fill="#FFFFFF"></path>
        </g>
    </g>
</svg>