<?xml version="1.0" encoding="UTF-8"?>
<svg width="304px" height="76px" viewBox="0 0 304 76" version="1.1" xmlns="http://www.w3.org/2000/svg" xmlns:xlink="http://www.w3.org/1999/xlink">
    <!-- Generator: Sketch 46.1 (44463) - http://www.bohemiancoding.com/sketch -->
    <title>i be doing button clicking</title>
    <desc>Created with Sketch.</desc>
    <defs></defs>
    <g id="Page-1" stroke="none" stroke-width="1" fill="none" fill-rule="evenodd">
        <g id="i-be-doing-button-clicking">
            <rect id="Rectangle-path" fill="#932832" fill-rule="nonzero" x="0" y="0" width="304" height="74" rx="10"></rect>
            <rect id="Rectangle-path" fill="#CE3A49" fill-rule="nonzero" x="0" y="2" width="304" height="74" rx="10"></rect>
            <path d="M113.272,30.344 L113.272,33.056 L103,33.056 L103,30.344 L106.888,30.344 C106.528,29.456 106,28.4 105.544,27.56 L108.232,26.288 C108.88,27.32 109.6,28.664 109.96,29.576 L108.52,30.344 L113.272,30.344 Z M112.264,36.368 L112.264,33.776 L104.032,33.776 L104.032,36.368 L112.264,36.368 Z M112.216,37.088 L104.032,37.088 L104.032,39.68 L112.216,39.68 L112.216,37.088 Z M109.336,43.208 L107.008,43.208 L107.008,45.176 L109.336,45.176 L109.336,43.208 Z M112.312,40.472 L112.312,47.936 L107.008,47.936 L107.008,48.896 L104.08,48.896 L104.08,40.472 L112.312,40.472 Z M124.936,34.232 L124.936,37.664 L120.736,37.664 L120.736,49.208 L117.088,49.208 L117.088,37.664 L113.152,37.664 L113.152,34.232 L117.088,34.232 L117.088,26.84 L120.736,26.84 L120.736,34.232 L124.936,34.232 Z M127.492,48.584 L149.644,48.584 L149.644,46.376 L127.492,46.376 L127.492,48.584 Z M143.596,42.056 L143.596,41.432 L140.068,41.432 L140.068,42.056 L143.596,42.056 Z M143.596,44.216 L143.596,43.568 L140.068,43.568 L140.068,44.216 L143.596,44.216 Z M133.684,43.568 L133.684,44.216 L136.852,44.216 L136.852,43.568 L133.684,43.568 Z M133.684,41.432 L133.684,42.056 L136.852,42.056 L136.852,41.432 L133.684,41.432 Z M130.276,39.848 L147.196,39.848 L147.196,45.8 L130.276,45.8 L130.276,39.848 Z M140.164,31.904 L140.164,32.48 L143.644,32.48 L143.644,31.904 L140.164,31.904 Z M140.164,29.552 L140.164,30.104 L143.644,30.104 L143.644,29.552 L140.164,29.552 Z M140.164,37.16 L149.692,37.16 L149.692,39.248 L127.54,39.248 L127.54,37.16 L136.612,37.16 L136.612,36.584 L129.196,36.584 L129.196,34.808 L136.612,34.808 L136.612,34.232 L130.012,34.232 L130.012,32.48 L136.612,32.48 L136.612,31.904 L127.636,31.904 L127.636,30.104 L136.612,30.104 L136.612,29.552 L130.156,29.552 L130.156,27.8 L136.612,27.8 L136.612,26.384 L140.164,26.384 L140.164,27.8 L147.172,27.8 L147.172,30.104 L149.476,30.104 L149.476,31.904 L147.172,31.904 L147.172,34.232 L140.164,34.232 L140.164,34.808 L148.108,34.808 L148.108,36.584 L140.164,36.584 L140.164,37.16 Z M165.16,32.768 L169.024,32.768 C168.472,32.24 167.776,31.64 167.2,31.208 L168.256,30.32 L166.984,30.32 C166.408,31.256 165.784,32.096 165.16,32.768 Z M166.984,37.496 L170.056,37.496 L170.056,36.992 L166.984,36.992 L166.984,37.496 Z M170.056,34.712 L166.984,34.712 L166.984,35.192 L170.056,35.192 L170.056,34.712 Z M161.872,45.176 L164.896,45.176 L164.896,44.48 L161.872,44.48 L161.872,45.176 Z M164.896,42.008 L161.872,42.008 L161.872,42.68 L164.896,42.68 L164.896,42.008 Z M154.48,32.768 L158.416,32.768 C157.888,32.216 157.264,31.64 156.736,31.184 L157.672,30.344 L156.592,30.344 C155.92,31.256 155.2,32.096 154.48,32.768 Z M156.64,37.496 L159.688,37.496 L159.688,36.992 L156.64,36.992 L156.64,37.496 Z M156.64,34.712 L156.64,35.192 L159.688,35.192 L159.688,34.712 L156.64,34.712 Z M174.568,27.728 L174.568,30.32 L170.728,30.32 C171.28,30.752 171.808,31.184 172.144,31.568 L170.776,32.768 L173.296,32.768 L173.296,45.848 C173.296,47.36 173.008,48.176 172.048,48.656 C171.088,49.16 169.792,49.208 168.016,49.184 C167.944,48.584 167.704,47.744 167.44,47.024 L161.872,47.024 L161.872,47.84 L158.752,47.84 L158.752,40.16 L167.944,40.16 L167.944,46.232 C168.664,46.256 169.336,46.232 169.576,46.232 C169.936,46.232 170.056,46.136 170.056,45.8 L170.056,39.416 L163.864,39.416 L163.864,32.768 L164.608,32.768 C163.96,32.192 162.952,31.376 162.304,30.992 C162.544,30.8 162.76,30.584 162.976,30.344 L160.024,30.344 C160.552,30.8 161.056,31.304 161.368,31.688 L160.216,32.768 L162.808,32.768 L162.808,39.416 L156.64,39.416 L156.64,49.184 L153.496,49.184 L153.496,32.768 L153.88,32.768 C153.328,32.12 152.44,31.16 151.888,30.68 C153.304,29.6 154.696,27.872 155.464,26.168 L158.512,27.104 C158.416,27.32 158.32,27.512 158.2,27.728 L163,27.728 L163,30.32 C164.032,29.192 164.92,27.68 165.424,26.168 L168.592,26.984 C168.496,27.224 168.4,27.488 168.304,27.728 L174.568,27.728 Z M182.044,39.032 L182.044,36.584 L185.74,36.584 L185.74,39.128 C185.74,42.32 185.212,46.496 180.484,49.232 C179.86,48.416 178.444,47.192 177.508,46.616 C181.588,44.408 182.044,41.408 182.044,39.032 Z M191.116,49.184 L191.116,36.536 L194.836,36.536 L194.836,49.184 L191.116,49.184 Z M188.02,26 L190.852,28.016 C190.708,28.232 190.54,28.448 190.372,28.664 C192.436,30.92 196.012,32.672 200.092,33.512 C199.252,34.304 198.124,35.84 197.596,36.848 C193.756,35.768 190.564,33.8 188.14,31.136 C185.476,33.68 181.948,35.912 178.54,37.232 C178.084,36.224 177.196,34.76 176.404,33.848 C181.084,32.528 185.764,29.384 188.02,26 Z" id="計畫簡介-copy" fill="#FFFFFF"></path>
        </g>
    </g>
</svg>