<?xml version="1.0" encoding="UTF-8"?>
<svg width="203px" height="76px" viewBox="0 0 203 76" version="1.1" xmlns="http://www.w3.org/2000/svg" xmlns:xlink="http://www.w3.org/1999/xlink">
    <!-- Generator: Sketch 46.1 (44463) - http://www.bohemiancoding.com/sketch -->
    <title>process button clicking</title>
    <desc>Created with Sketch.</desc>
    <defs></defs>
    <g id="Page-1" stroke="none" stroke-width="1" fill="none" fill-rule="evenodd">
        <g id="process-button-clicking">
            <rect id="Rectangle-path" fill="#AE2E37" fill-rule="nonzero" x="0" y="0" width="203" height="74" rx="10"></rect>
            <rect id="Rectangle-path" fill="#CE3A49" fill-rule="nonzero" x="0" y="2" width="203" height="74" rx="10"></rect>
            <path d="M65.616,39.68 L70.224,39.68 L70.224,37.784 L65.616,37.784 L65.616,39.68 Z M57.48,39.68 L61.968,39.68 L61.968,37.784 L57.48,37.784 L57.48,39.68 Z M61.968,32.744 L57.48,32.744 L57.48,34.592 L61.968,34.592 L61.968,32.744 Z M70.224,32.744 L65.616,32.744 L65.616,34.592 L70.224,34.592 L70.224,32.744 Z M65.616,29.408 L73.872,29.408 L73.872,44.096 L70.224,44.096 L70.224,43.016 L65.616,43.016 L65.616,48.992 L61.968,48.992 L61.968,43.016 L57.48,43.016 L57.48,44.24 L54,44.24 L54,29.408 L61.968,29.408 L61.968,26.192 L65.616,26.192 L65.616,29.408 Z M86.1239999,30.08 L82.3799999,30.08 L84.0599999,29.528 C83.7959999,28.64 83.2439999,27.296 82.7639999,26.264 L79.8119999,27.128 C80.1719999,28.016 80.6279999,29.192 80.8679999,30.08 L77.4599999,30.08 L77.4599999,32.792 L86.1239999,32.792 L86.1239999,30.08 Z M85.5239999,33.512 L78.1559999,33.512 L78.1559999,36.104 L85.5239999,36.104 L85.5239999,33.512 Z M78.1319999,39.416 L85.4999999,39.416 L85.4999999,36.824 L78.1319999,36.824 L78.1319999,39.416 Z M82.5719999,42.968 L80.9879999,42.968 L80.9879999,45.008 L82.5719999,45.008 L82.5719999,42.968 Z M85.5479999,40.256 L85.5479999,47.72 L80.9879999,47.72 L80.9879999,48.584 L78.0599999,48.584 L78.0599999,40.256 L85.5479999,40.256 Z M90.1799999,43.304 L95.7959999,43.304 L95.7959999,42.536 L90.2279999,42.536 C90.2039999,42.776 90.2039999,43.04 90.1799999,43.304 Z M95.7959999,39.608 L90.2519999,39.608 L90.2519999,40.328 L95.7959999,40.328 L95.7959999,39.608 Z M99.0359999,37.088 L99.0359999,45.992 C99.0359999,47.36 98.7719999,48.104 97.8359999,48.536 C96.9239999,48.968 95.7239999,49.016 94.1639999,48.992 C94.0439999,48.176 93.6599999,47.024 93.2999999,46.256 C94.0679999,46.304 95.0999999,46.304 95.3879999,46.304 C95.6999999,46.304 95.7959999,46.208 95.7959999,45.944 L95.7959999,45.512 L89.8199999,45.512 C89.5079999,46.88 88.9319999,48.176 88.0199999,49.16 C87.5399999,48.56 86.2439999,47.336 85.5959999,46.952 C87.0119999,45.344 87.1319999,43.136 87.1319999,41.312 L87.1319999,37.088 L99.0359999,37.088 Z M94.6919999,33.896 L94.6919999,33.2 L99.1799999,33.2 L99.1799999,30.92 L94.6919999,30.92 L94.6919999,30.272 L99.6599999,30.272 L99.6599999,27.848 L94.6919999,27.848 L94.6919999,26.192 L91.3079999,26.192 L91.3079999,27.848 L86.5799999,27.848 L86.5799999,30.272 L91.3079999,30.272 L91.3079999,30.92 L87.1799999,30.92 L87.1799999,33.2 L91.3079999,33.2 L91.3079999,33.896 L86.1719999,33.896 L86.1719999,36.344 L100.02,36.344 L100.02,33.896 L94.6919999,33.896 Z M109.56,28.88 L107.52,31.712 C106.608,30.848 104.616,29.696 103.08,29.024 L104.976,26.456 C106.488,27.008 108.552,28.016 109.56,28.88 Z M108.624,35.384 L106.68,38.288 C105.744,37.448 103.704,36.344 102.144,35.696 L103.944,33.056 C105.48,33.584 107.568,34.568 108.624,35.384 Z M107.04,38.888 L109.608,41.216 C108.336,43.736 106.896,46.328 105.432,48.728 L102.48,46.376 C103.752,44.6 105.576,41.696 107.04,38.888 Z M111.264,40.088 L111.264,37.952 L114.384,37.952 L114.384,40.208 C114.384,42.896 113.976,46.424 110.736,48.896 C110.232,48.2 109.056,47.12 108.288,46.616 C110.952,44.672 111.264,42.08 111.264,40.088 Z M115.224,47.936 L115.224,38.216 L118.248,38.216 L118.248,47.936 L115.224,47.936 Z M114.264,34.256 L119.424,33.992 L118.608,32.912 L120.072,32.048 L116.064,32.048 C115.464,32.816 114.864,33.56 114.264,34.256 Z M122.688,45.776 L123.336,45.776 C123.696,45.776 124.224,45.728 124.56,45.608 C124.608,46.424 124.68,47.528 124.8,48.248 C124.416,48.416 123.864,48.44 123.36,48.44 L122.352,48.44 C119.688,48.44 119.184,47.288 119.184,44.648 L119.184,37.976 L122.184,37.976 C121.968,37.616 121.704,37.184 121.392,36.728 C112.848,37.328 111.48,37.448 110.496,37.832 C110.328,37.184 109.776,35.552 109.392,34.664 C110.064,34.496 110.568,34.016 111.288,33.176 C111.504,32.96 111.816,32.576 112.2,32.048 L109.56,32.048 L109.56,28.952 L114.216,28.952 C114.744,28.016 115.272,27.008 115.728,26 L119.136,27.296 C118.824,27.848 118.512,28.4 118.176,28.952 L124.488,28.952 L124.488,32.048 L121.752,32.048 C122.928,33.488 124.368,35.24 125.136,36.368 L122.376,38.12 L122.376,44.696 C122.376,45.488 122.4,45.776 122.688,45.776 Z M136.428,40.232 L134.604,43.04 C134.316,42.296 133.86,41.24 133.356,40.256 L133.356,48.992 L130.068,48.992 L130.068,41.216 C129.516,42.848 128.868,44.36 128.148,45.488 C127.86,44.456 127.14,42.944 126.66,42.008 C127.668,40.544 128.628,38.264 129.276,36.176 L126.972,36.176 L126.972,32.936 L130.068,32.936 L130.068,30.632 C129.396,30.752 128.748,30.848 128.124,30.92 C128.004,30.152 127.596,28.976 127.236,28.232 C129.732,27.8 132.42,27.08 134.292,26.24 L136.092,29.096 C135.252,29.408 134.316,29.696 133.356,29.936 L133.356,32.936 L135.828,32.936 L135.828,36.176 L133.356,36.176 L133.356,36.44 C133.956,37.088 135.996,39.608 136.428,40.232 Z M145.068,32.888 L145.068,30.056 L139.932,30.056 L139.932,32.888 L145.068,32.888 Z M148.452,27.152 L148.452,35.792 L136.716,35.792 L136.716,27.152 L148.452,27.152 Z M144.564,45.512 L149.46,45.512 L149.46,48.584 L135.516,48.584 L135.516,45.512 L141.084,45.512 L141.084,43.904 L136.644,43.904 L136.644,40.952 L141.084,40.952 L141.084,39.488 C139.836,39.584 138.612,39.656 137.46,39.68 C137.364,38.936 136.98,37.736 136.644,37.04 C140.172,36.848 144.084,36.416 146.628,35.792 L148.716,38.408 C147.444,38.72 146.028,38.96 144.564,39.152 L144.564,40.952 L148.548,40.952 L148.548,43.904 L144.564,43.904 L144.564,45.512 Z" id="申請流程-copy" fill="#FFFFFF"></path>
        </g>
    </g>
</svg>