<?xml version="1.0" encoding="UTF-8"?>
<svg width="203px" height="76px" viewBox="0 0 203 76" version="1.1" xmlns="http://www.w3.org/2000/svg" xmlns:xlink="http://www.w3.org/1999/xlink">
    <!-- Generator: Sketch 46.1 (44463) - http://www.bohemiancoding.com/sketch -->
    <title>process button</title>
    <desc>Created with Sketch.</desc>
    <defs></defs>
    <g id="Page-1" stroke="none" stroke-width="1" fill="none" fill-rule="evenodd">
        <g id="process-button">
            <rect id="Rectangle-path" fill="#AE2E37" fill-rule="nonzero" x="0" y="2" width="203" height="74" rx="10"></rect>
            <rect id="Rectangle-path" fill="#E83D49" fill-rule="nonzero" x="0" y="0" width="203" height="74" rx="10"></rect>
            <path d="M63.616,37.68 L68.224,37.68 L68.224,35.784 L63.616,35.784 L63.616,37.68 Z M55.48,37.68 L59.968,37.68 L59.968,35.784 L55.48,35.784 L55.48,37.68 Z M59.968,30.744 L55.48,30.744 L55.48,32.592 L59.968,32.592 L59.968,30.744 Z M68.224,30.744 L63.616,30.744 L63.616,32.592 L68.224,32.592 L68.224,30.744 Z M63.616,27.408 L71.872,27.408 L71.872,42.096 L68.224,42.096 L68.224,41.016 L63.616,41.016 L63.616,46.992 L59.968,46.992 L59.968,41.016 L55.48,41.016 L55.48,42.24 L52,42.24 L52,27.408 L59.968,27.408 L59.968,24.192 L63.616,24.192 L63.616,27.408 Z M84.1239999,28.08 L80.3799999,28.08 L82.0599999,27.528 C81.7959999,26.64 81.2439999,25.296 80.7639999,24.264 L77.8119999,25.128 C78.1719999,26.016 78.6279999,27.192 78.8679999,28.08 L75.4599999,28.08 L75.4599999,30.792 L84.1239999,30.792 L84.1239999,28.08 Z M83.5239999,31.512 L76.1559999,31.512 L76.1559999,34.104 L83.5239999,34.104 L83.5239999,31.512 Z M76.1319999,37.416 L83.4999999,37.416 L83.4999999,34.824 L76.1319999,34.824 L76.1319999,37.416 Z M80.5719999,40.968 L78.9879999,40.968 L78.9879999,43.008 L80.5719999,43.008 L80.5719999,40.968 Z M83.5479999,38.256 L83.5479999,45.72 L78.9879999,45.72 L78.9879999,46.584 L76.0599999,46.584 L76.0599999,38.256 L83.5479999,38.256 Z M88.1799999,41.304 L93.7959999,41.304 L93.7959999,40.536 L88.2279999,40.536 C88.2039999,40.776 88.2039999,41.04 88.1799999,41.304 Z M93.7959999,37.608 L88.2519999,37.608 L88.2519999,38.328 L93.7959999,38.328 L93.7959999,37.608 Z M97.0359999,35.088 L97.0359999,43.992 C97.0359999,45.36 96.7719999,46.104 95.8359999,46.536 C94.9239999,46.968 93.7239999,47.016 92.1639999,46.992 C92.0439999,46.176 91.6599999,45.024 91.2999999,44.256 C92.0679999,44.304 93.0999999,44.304 93.3879999,44.304 C93.6999999,44.304 93.7959999,44.208 93.7959999,43.944 L93.7959999,43.512 L87.8199999,43.512 C87.5079999,44.88 86.9319999,46.176 86.0199999,47.16 C85.5399999,46.56 84.2439999,45.336 83.5959999,44.952 C85.0119999,43.344 85.1319999,41.136 85.1319999,39.312 L85.1319999,35.088 L97.0359999,35.088 Z M92.6919999,31.896 L92.6919999,31.2 L97.1799999,31.2 L97.1799999,28.92 L92.6919999,28.92 L92.6919999,28.272 L97.6599999,28.272 L97.6599999,25.848 L92.6919999,25.848 L92.6919999,24.192 L89.3079999,24.192 L89.3079999,25.848 L84.5799999,25.848 L84.5799999,28.272 L89.3079999,28.272 L89.3079999,28.92 L85.1799999,28.92 L85.1799999,31.2 L89.3079999,31.2 L89.3079999,31.896 L84.1719999,31.896 L84.1719999,34.344 L98.0199999,34.344 L98.0199999,31.896 L92.6919999,31.896 Z M107.56,26.88 L105.52,29.712 C104.608,28.848 102.616,27.696 101.08,27.024 L102.976,24.456 C104.488,25.008 106.552,26.016 107.56,26.88 Z M106.624,33.384 L104.68,36.288 C103.744,35.448 101.704,34.344 100.144,33.696 L101.944,31.056 C103.48,31.584 105.568,32.568 106.624,33.384 Z M105.04,36.888 L107.608,39.216 C106.336,41.736 104.896,44.328 103.432,46.728 L100.48,44.376 C101.752,42.6 103.576,39.696 105.04,36.888 Z M109.264,38.088 L109.264,35.952 L112.384,35.952 L112.384,38.208 C112.384,40.896 111.976,44.424 108.736,46.896 C108.232,46.2 107.056,45.12 106.288,44.616 C108.952,42.672 109.264,40.08 109.264,38.088 Z M113.224,45.936 L113.224,36.216 L116.248,36.216 L116.248,45.936 L113.224,45.936 Z M112.264,32.256 L117.424,31.992 L116.608,30.912 L118.072,30.048 L114.064,30.048 C113.464,30.816 112.864,31.56 112.264,32.256 Z M120.688,43.776 L121.336,43.776 C121.696,43.776 122.224,43.728 122.56,43.608 C122.608,44.424 122.68,45.528 122.8,46.248 C122.416,46.416 121.864,46.44 121.36,46.44 L120.352,46.44 C117.688,46.44 117.184,45.288 117.184,42.648 L117.184,35.976 L120.184,35.976 C119.968,35.616 119.704,35.184 119.392,34.728 C110.848,35.328 109.48,35.448 108.496,35.832 C108.328,35.184 107.776,33.552 107.392,32.664 C108.064,32.496 108.568,32.016 109.288,31.176 C109.504,30.96 109.816,30.576 110.2,30.048 L107.56,30.048 L107.56,26.952 L112.216,26.952 C112.744,26.016 113.272,25.008 113.728,24 L117.136,25.296 C116.824,25.848 116.512,26.4 116.176,26.952 L122.488,26.952 L122.488,30.048 L119.752,30.048 C120.928,31.488 122.368,33.24 123.136,34.368 L120.376,36.12 L120.376,42.696 C120.376,43.488 120.4,43.776 120.688,43.776 Z M134.428,38.232 L132.604,41.04 C132.316,40.296 131.86,39.24 131.356,38.256 L131.356,46.992 L128.068,46.992 L128.068,39.216 C127.516,40.848 126.868,42.36 126.148,43.488 C125.86,42.456 125.14,40.944 124.66,40.008 C125.668,38.544 126.628,36.264 127.276,34.176 L124.972,34.176 L124.972,30.936 L128.068,30.936 L128.068,28.632 C127.396,28.752 126.748,28.848 126.124,28.92 C126.004,28.152 125.596,26.976 125.236,26.232 C127.732,25.8 130.42,25.08 132.292,24.24 L134.092,27.096 C133.252,27.408 132.316,27.696 131.356,27.936 L131.356,30.936 L133.828,30.936 L133.828,34.176 L131.356,34.176 L131.356,34.44 C131.956,35.088 133.996,37.608 134.428,38.232 Z M143.068,30.888 L143.068,28.056 L137.932,28.056 L137.932,30.888 L143.068,30.888 Z M146.452,25.152 L146.452,33.792 L134.716,33.792 L134.716,25.152 L146.452,25.152 Z M142.564,43.512 L147.46,43.512 L147.46,46.584 L133.516,46.584 L133.516,43.512 L139.084,43.512 L139.084,41.904 L134.644,41.904 L134.644,38.952 L139.084,38.952 L139.084,37.488 C137.836,37.584 136.612,37.656 135.46,37.68 C135.364,36.936 134.98,35.736 134.644,35.04 C138.172,34.848 142.084,34.416 144.628,33.792 L146.716,36.408 C145.444,36.72 144.028,36.96 142.564,37.152 L142.564,38.952 L146.548,38.952 L146.548,41.904 L142.564,41.904 L142.564,43.512 Z" id="申請流程" fill="#FFFFFF"></path>
        </g>
    </g>
</svg>