<?xml version="1.0" encoding="UTF-8"?>
<svg width="173px" height="76px" viewBox="0 0 173 76" version="1.1" xmlns="http://www.w3.org/2000/svg" xmlns:xlink="http://www.w3.org/1999/xlink">
    <!-- Generator: Sketch 46.1 (44463) - http://www.bohemiancoding.com/sketch -->
    <title>read more button clicking</title>
    <desc>Created with Sketch.</desc>
    <defs></defs>
    <g id="Page-1" stroke="none" stroke-width="1" fill="none" fill-rule="evenodd">
        <g id="read-more-button-clicking">
            <rect id="Rectangle-path" fill="#932832" fill-rule="nonzero" x="0" y="0" width="173" height="74" rx="10"></rect>
            <rect id="Rectangle-path" fill="#CE3A49" fill-rule="nonzero" x="0" y="2" width="173" height="74" rx="10"></rect>
            <path d="M66.632,39.944 L66.632,39.272 L58.928,39.272 L58.928,39.944 L66.632,39.944 Z M58.928,45.56 L66.632,45.56 L66.632,44.84 L58.928,44.84 L58.928,45.56 Z M58.928,42.056 L58.928,42.728 L66.632,42.728 L66.632,42.056 L58.928,42.056 Z M72.344,36.056 L59.624,36.056 C59.528,36.272 59.408,36.464 59.288,36.68 L70.136,36.68 L70.136,48.968 L66.632,48.968 L66.632,48.152 L58.928,48.152 L58.928,48.968 L55.592,48.968 L55.592,41.552 C54.584,42.536 53.432,43.4 52.16,44.12 C51.68,43.304 50.672,42.008 50,41.336 C52.424,40.088 54.272,38.216 55.64,36.056 L50.84,36.056 L50.84,33.344 L57.08,33.344 C57.176,33.152 57.248,32.936 57.344,32.744 L52.472,32.744 L52.472,30.152 L58.208,30.152 L58.4,29.504 C56.504,29.552 54.656,29.552 52.904,29.528 C52.856,28.784 52.544,27.632 52.256,26.96 C58.16,26.984 64.904,26.72 69.104,26.12 L71.072,28.592 C68.456,28.976 65.384,29.24 62.192,29.384 L61.976,30.152 L71.072,30.152 L71.072,32.744 L61.112,32.744 L60.872,33.344 L72.344,33.344 L72.344,36.056 Z M84.2359999,41.504 L81.2599999,41.504 C81.8359999,42.104 82.4599999,42.608 83.1319999,43.04 C83.6119999,42.56 83.9719999,42.056 84.2359999,41.504 Z M81.1159999,37.64 L81.1159999,38.72 L84.8119999,38.72 L84.8119999,37.64 L81.1159999,37.64 Z M81.1159999,34.016 L81.1159999,35.072 L84.8119999,35.072 L84.8119999,34.016 L81.1159999,34.016 Z M92.1079999,34.016 L88.4839999,34.016 L88.4839999,35.072 L92.1079999,35.072 L92.1079999,34.016 Z M92.1079999,38.72 L92.1079999,37.64 L88.4839999,37.64 L88.4839999,38.72 L92.1079999,38.72 Z M95.5639999,41.504 L88.0759999,41.504 C87.7639999,42.56 87.2839999,43.568 86.5399999,44.456 C89.6599999,45.272 93.5239999,45.224 98.1559999,45.104 C97.5319999,45.896 96.8839999,47.384 96.6919999,48.56 C91.6279999,48.512 87.1879999,48.272 83.6359999,46.832 C82.0519999,47.72 79.9879999,48.416 77.3719999,48.92 C76.9879999,48.128 76.0039999,46.616 75.2359999,45.824 C77.2279999,45.56 78.8359999,45.2 80.0839999,44.768 C79.3159999,44.096 78.5959999,43.328 77.9479999,42.44 L80.2759999,41.504 L77.8279999,41.504 L77.8279999,31.232 L84.8119999,31.232 L84.8119999,30.176 L75.8119999,30.176 L75.8119999,27.08 L97.0999999,27.08 L97.0999999,30.176 L88.4839999,30.176 L88.4839999,31.232 L95.5639999,31.232 L95.5639999,41.504 Z M116.912,40.184 L112.04,40.184 C111.752,40.376 111.464,40.544 111.176,40.712 C112.04,41.336 112.928,42.08 113.576,42.704 C114.872,42.008 116,41.192 116.912,40.184 Z M108.152,31.016 L107.96,31.136 C108.8,31.808 109.688,32.552 110.288,33.224 C111.584,32.576 112.736,31.856 113.696,31.016 L108.152,31.016 Z M119.912,36.944 L122.336,38.312 C118.928,45.752 111.2,48.128 101.576,48.968 C101.336,48.008 100.76,46.472 100.208,45.608 C103.904,45.416 107.264,44.96 110.12,44.096 C109.568,43.52 108.824,42.872 108.128,42.32 C107.288,42.68 106.376,43.064 105.44,43.4 C105.032,42.584 104.048,41.288 103.328,40.688 C107.768,39.392 110.864,37.52 112.784,35.504 C109.688,37.232 106.016,38.336 102.152,39.032 C101.84,38.144 101.144,36.728 100.544,35.984 C102.824,35.672 105.056,35.192 107.096,34.52 C106.544,33.92 105.848,33.272 105.176,32.696 C104.6,32.984 104.024,33.272 103.4,33.536 C102.896,32.744 101.816,31.568 101.048,31.04 C104.936,29.696 107.792,27.824 109.472,26 L113.216,26.864 C112.856,27.248 112.472,27.608 112.088,27.968 L116.504,27.968 L117.08,27.824 L119.384,29.168 C118.088,31.496 116.192,33.368 113.888,34.832 L117.248,35.6 C116.792,36.128 116.336,36.632 115.856,37.112 L119.288,37.112 L119.912,36.944 Z" id="看更多" fill="#FFFFFF"></path>
        </g>
    </g>
</svg>