<svg xmlns="http://www.w3.org/2000/svg" viewBox="0 0 807.78117 343"><defs><style>.cls-1{fill:#c63846;}.cls-2{fill:#fff;}</style></defs><title>tagline_1</title><g id="Layer_2" data-name="Layer 2"><g id="Layer_3" data-name="Layer 3"><polygon class="cls-1" points="785.744 153.767 789 144 770.597 154.122 759.388 154.224 760 153 759 146 747 154 750.639 154.303 732.511 154.468 733 153 732 146 719.599 154.585 688.773 154.866 687 146 673.375 154.516 668.836 151 715 121 704 109.236 704 84 651.359 84 689 48 689 34.955 677.462 10.924 669.508 18.206 656.428 11.652 645.519 18.206 622.222 12.38 607.661 21.119 598.924 10.195 588.001 20.391 574.165 10.924 553.775 26.945 530.471 11.652 516.635 21.88 510.081 19 501.342 19 492.603 10.956 482.404 20.407 460.553 0 0 342 186 343 582.904 343 797 193.711 797 174.049 799 152 785.744 153.767"/><path class="cls-2" d="M445.99562,47.33546,460.41459,0h15.14756l14.419,47.33546H476.7274l-2.3305-10.04954H461.14282l-2.33015,10.04954Zm18.20594-23.01239-.80113,3.27707h8.73885l-.80113-3.27707q-.87367-3.42215-1.7477-7.42781-.87367-4.0046-1.7477-7.574h-.29122q-.8022,3.64243-1.63854,7.61023Q465.07506,20.90146,464.20157,24.32307Z"/><path class="cls-2" d="M493.47651,47.33546V10.92357h10.19533l.874,6.26292h.29122A14.06253,14.06253,0,0,1,509.6798,11.761a10.53032,10.53032,0,0,1,5.49841-1.71143,16.04234,16.04234,0,0,1,2.69427.18206,7.70162,7.70162,0,0,1,1.82059.54618l-2.03892,10.77813q-1.02088-.21868-1.92976-.40074a11.16082,11.16082,0,0,0-2.14844-.18206,7.77884,7.77884,0,0,0-4.11447,1.34731,9.30611,9.30611,0,0,0-3.45913,4.77017V47.33546Z"/><path class="cls-2" d="M540.08409,48.20948a21.14062,21.14062,0,0,1-7.42817-1.27442,16.82642,16.82642,0,0,1-5.93507-3.71408,17.4102,17.4102,0,0,1-3.96868-6.008,21.21026,21.21026,0,0,1-1.45648-8.08351,20.30388,20.30388,0,0,1,1.49275-7.97435,18.96144,18.96144,0,0,1,3.93241-6.008,16.94308,16.94308,0,0,1,5.57095-3.78662,17.50489,17.50489,0,0,1,13.4724.07289,13.78215,13.78215,0,0,1,4.95223,3.78662,16.3007,16.3007,0,0,1,2.94922,5.60757,23.2238,23.2238,0,0,1,.98319,6.84536,25.444,25.444,0,0,1-.18206,3.13128q-.18242,1.45772-.32785,2.11217H533.38416a6.95255,6.95255,0,0,0,3.13164,4.55149,10.632,10.632,0,0,0,5.316,1.27442,12.50153,12.50153,0,0,0,3.67781-.54618A19.612,19.612,0,0,0,549.26,36.55768l4.0782,7.42781a22.039,22.039,0,0,1-6.59077,3.16791A23.8474,23.8474,0,0,1,540.08409,48.20948Zm-6.84536-23.4494H544.0165a6.42885,6.42885,0,0,0-1.05573-3.67746q-1.05662-1.56546-3.89614-1.566a5.75483,5.75483,0,0,0-3.67781,1.23815A6.63847,6.63847,0,0,0,533.23872,24.76008Z"/><path class="cls-2" d="M581.44714,61.02618a21.43989,21.43989,0,0,1-3.095-.18206,18.49148,18.49148,0,0,1-2.43967-.54618l2.18471-9.46709q.50831.14508,1.12863.29158a5.25173,5.25173,0,0,0,1.20152.14543,6.20389,6.20389,0,0,0,3.82325-.98319,5.58551,5.58551,0,0,0,1.85722-2.658l.437-1.60191-13.83652-35.1012h12.52548l4.36943,13.98231q.8006,2.54954,1.38358,5.061.58245,2.51274,1.23815,5.27972h.29122q.58191-2.62155,1.129-5.17056.54618-2.54794,1.20152-5.1702l3.64119-13.98231h11.943L598.19661,46.753a54.28519,54.28519,0,0,1-2.94958,6.40835,16.70157,16.70157,0,0,1-3.45913,4.44232,12.73275,12.73275,0,0,1-4.47859,2.5851A18.58266,18.58266,0,0,1,581.44714,61.02618Z"/><path class="cls-2" d="M630.967,48.20948a18.545,18.545,0,0,1-6.77247-1.27442,17.12959,17.12959,0,0,1-5.78963-3.71408,17.83931,17.83931,0,0,1-4.00531-6.008,20.76169,20.76169,0,0,1-1.49275-8.08351,20.76921,20.76921,0,0,1,1.49275-8.08351,17.86051,17.86051,0,0,1,4.00531-6.008,17.162,17.162,0,0,1,5.78963-3.71408,18.545,18.545,0,0,1,6.77247-1.27442,18.26341,18.26341,0,0,1,6.7362,1.27442,17.25568,17.25568,0,0,1,5.753,3.71408,18.318,18.318,0,0,1,4.04193,6.008,20.34289,20.34289,0,0,1,1.529,8.08351,20.33554,20.33554,0,0,1-1.529,8.08351,18.29569,18.29569,0,0,1-4.04193,6.008,17.2226,17.2226,0,0,1-5.753,3.71408A18.26341,18.26341,0,0,1,630.967,48.20948Zm0-10.04989a4.161,4.161,0,0,0,4.04158-2.43967,15.07565,15.07565,0,0,0,1.20188-6.59041,15.07994,15.07994,0,0,0-1.20188-6.59041,4.56749,4.56749,0,0,0-8.08316,0,15.07994,15.07994,0,0,0-1.20188,6.59041,15.07565,15.07565,0,0,0,1.20188,6.59041A4.161,4.161,0,0,0,630.967,38.15959Z"/><path class="cls-2" d="M666.65025,48.20948a11.53435,11.53435,0,0,1-5.13393-1.05609,9.33962,9.33962,0,0,1-3.532-2.98585A13.18257,13.18257,0,0,1,655.945,39.5069a26.447,26.447,0,0,1-.65534-6.15375V10.92357H667.8155V31.75124q0,3.49522.87367,4.66065a3.23174,3.23174,0,0,0,2.76752,1.16525,5.21265,5.21265,0,0,0,2.87633-.72824,9.3298,9.3298,0,0,0,2.36677-2.47594V10.92357h12.52583V47.33546H679.03029l-.874-4.80644H677.865a18.02071,18.02071,0,0,1-4.84271,4.1511A12.57467,12.57467,0,0,1,666.65025,48.20948Z"/><path class="cls-2" d="M465.94927,121.03326a15.68758,15.68758,0,0,1-6.08086-1.05609,10.69215,10.69215,0,0,1-4.15074-3.02212,12.49557,12.49557,0,0,1-2.4034-4.69728,22.53814,22.53814,0,0,1-.76451-6.08086V93.50566h-4.80644v-9.3213l5.53468-.437,1.45648-9.46709h10.34112v9.46709h8.30184v9.75832h-8.30184V105.9586q0,3.05839,1.31069,4.18737a4.53992,4.53992,0,0,0,3.05874,1.12863,7.99525,7.99525,0,0,0,1.71107-.18206,14.29453,14.29453,0,0,0,1.4931-.40039l1.89349,9.03008q-1.45772.43684-3.49575.874A24.89689,24.89689,0,0,1,465.94927,121.03326Z"/><path class="cls-2" d="M480.07665,120.15924V69.47381h12.52583V81.27141L492.02,87.53432a26.20858,26.20858,0,0,1,4.55149-3.16791,12.82263,12.82263,0,0,1,6.37208-1.4931q5.97009,0,8.666,4.04193,2.693,4.0414,2.69427,10.8144v22.42958H501.77835V99.33156q0-3.49522-.874-4.66065a3.23568,3.23568,0,0,0-2.76716-1.16525,5.40673,5.40673,0,0,0-2.913.72824,19.50081,19.50081,0,0,0-2.62173,2.03928v23.88606Z"/><path class="cls-2" d="M539.35407,121.03326a21.14062,21.14062,0,0,1-7.42817-1.27442,16.82642,16.82642,0,0,1-5.93507-3.71408,17.4102,17.4102,0,0,1-3.96868-6.008,21.21026,21.21026,0,0,1-1.45648-8.08351,20.30388,20.30388,0,0,1,1.49275-7.97435,18.96144,18.96144,0,0,1,3.93241-6.008,16.94308,16.94308,0,0,1,5.57095-3.78662,17.50489,17.50489,0,0,1,13.4724.07289,13.78215,13.78215,0,0,1,4.95223,3.78662,16.3007,16.3007,0,0,1,2.94922,5.60757,23.2238,23.2238,0,0,1,.98319,6.84536,25.444,25.444,0,0,1-.18206,3.13128q-.18241,1.45772-.32785,2.11217H532.65414a6.95255,6.95255,0,0,0,3.13164,4.55149,10.632,10.632,0,0,0,5.316,1.27442,12.50153,12.50153,0,0,0,3.67781-.54618,19.612,19.612,0,0,0,3.75035-1.63854l4.0782,7.42781a22.039,22.039,0,0,1-6.59077,3.16791A23.84739,23.84739,0,0,1,539.35407,121.03326Zm-6.84536-23.4494h10.77778a6.42885,6.42885,0,0,0-1.05573-3.67746q-1.05662-1.56546-3.89614-1.566a5.75483,5.75483,0,0,0-3.67781,1.23815A6.63847,6.63847,0,0,0,532.50871,97.58386Z"/><path class="cls-2" d="M575.32788,120.15924V83.74735h10.19533l.874,4.36943h.29122a23.91956,23.91956,0,0,1,4.9885-3.67746,13.14592,13.14592,0,0,1,6.51787-1.566q5.97009,0,8.666,4.04193,2.693,4.0414,2.69427,10.8144v22.42958H597.02958V99.33156q0-3.49522-.874-4.66065a3.23568,3.23568,0,0,0-2.76716-1.16525,5.40673,5.40673,0,0,0-2.913.72824,19.5008,19.5008,0,0,0-2.62173,2.03928v23.88606Z"/><path class="cls-2" d="M634.6053,121.03326a21.14062,21.14062,0,0,1-7.42817-1.27442,16.82642,16.82642,0,0,1-5.93507-3.71408,17.4102,17.4102,0,0,1-3.96868-6.008,21.21026,21.21026,0,0,1-1.45648-8.08351,20.30388,20.30388,0,0,1,1.49275-7.97435,18.96144,18.96144,0,0,1,3.93241-6.008,16.94308,16.94308,0,0,1,5.57095-3.78662,17.50489,17.50489,0,0,1,13.4724.07289,13.78215,13.78215,0,0,1,4.95223,3.78662,16.3007,16.3007,0,0,1,2.94922,5.60757,23.2238,23.2238,0,0,1,.98319,6.84536,25.444,25.444,0,0,1-.18206,3.13128q-.18242,1.45772-.32785,2.11217H627.90537a6.95255,6.95255,0,0,0,3.13164,4.55149,10.632,10.632,0,0,0,5.316,1.27442,12.50153,12.50153,0,0,0,3.67781-.54618,19.612,19.612,0,0,0,3.75035-1.63854l4.0782,7.42781a22.039,22.039,0,0,1-6.59077,3.16791A23.8474,23.8474,0,0,1,634.6053,121.03326Zm-6.84536-23.4494h10.77778a6.42885,6.42885,0,0,0-1.05573-3.67746q-1.05662-1.56546-3.89614-1.566a5.75483,5.75483,0,0,0-3.67781,1.23815A6.63847,6.63847,0,0,0,627.75993,97.58386Z"/><path class="cls-2" d="M651.35441,120.15924,662.278,101.22505,651.93721,83.74735h13.3995l2.62173,5.09766q.727,1.52919,1.45648,3.13128.727,1.6028,1.45648,3.13164h.29122q.50831-1.52919,1.09236-3.13164.58191-1.60067,1.09236-3.13128l1.7477-5.09766h12.96249l-10.34076,18.93418,10.92357,17.47771h-13.3995l-2.913-5.09766q-.8022-1.52919-1.60227-3.13128-.8022-1.6012-1.60227-3.13164h-.29122q-.58351,1.52919-1.23779,3.095-.65552,1.56706-1.23815,3.16791l-2.03892,5.09766Z"/><path class="cls-2" d="M706.70013,121.03326a15.68758,15.68758,0,0,1-6.08086-1.05609,10.69215,10.69215,0,0,1-4.15074-3.02212,12.49557,12.49557,0,0,1-2.4034-4.69728,22.53814,22.53814,0,0,1-.76451-6.08086V93.50566h-4.80644v-9.3213l5.53468-.437,1.45648-9.46709h10.34112v9.46709h8.30184v9.75832h-8.30184V105.9586q0,3.05839,1.31069,4.18737a4.53992,4.53992,0,0,0,3.05874,1.12863,7.99525,7.99525,0,0,0,1.71107-.18206,14.29452,14.29452,0,0,0,1.4931-.40039l1.89349,9.03008q-1.45772.43684-3.49575.874A24.89689,24.89689,0,0,1,706.70013,121.03326Z"/><path class="cls-2" d="M471.33815,193.857q-9.97789,0-14.81935-5.78963-4.84413-5.78928-4.84307-17.951V145.64756h12.52583v25.92534q0,6.33546,1.71143,8.92091a6.03251,6.03251,0,0,0,5.42516,2.5851,6.22,6.22,0,0,0,5.49841-2.5851q1.78361-2.58421,1.784-8.92091V145.64756h12.08882v24.46886q0,12.1626-4.73355,17.951Q481.241,193.85669,471.33815,193.857Z"/><path class="cls-2" d="M500.90468,192.983V145.64756h12.8167l10.48691,21.1189,4.51486,10.63234h.29122q-.21815-1.893-.50955-4.1511-.29176-2.25619-.50991-4.62438-.21815-2.36553-.40039-4.73355-.18295-2.36553-.18206-4.55149V145.64756h11.943V192.983H526.53844l-10.48655-21.19179-4.51522-10.55945h-.29122q.43684,4.07927,1.01946,8.88464a76.37193,76.37193,0,0,1,.5828,9.17587V192.983Z"/><path class="cls-2" d="M549.842,192.983V145.64756h12.52548V192.983Z"/><path class="cls-2" d="M579.26243,193.857a6.84869,6.84869,0,0,1-5.24345-2.18471,8.14137,8.14137,0,0,1,0-10.77813,7.38467,7.38467,0,0,1,10.48691,0,8.14137,8.14137,0,0,1,0,10.77813A6.8524,6.8524,0,0,1,579.26243,193.857Z"/><path class="cls-2" d="M616.69307,193.857a25.11511,25.11511,0,0,1-8.62969-1.4931,19.90421,19.90421,0,0,1-7.20948-4.51486,21.61693,21.61693,0,0,1-4.91561-7.574,28.3957,28.3957,0,0,1-1.82059-10.59572,27.76817,27.76817,0,0,1,1.89349-10.59572,23.39034,23.39034,0,0,1,5.06139-7.79229,21.86221,21.86221,0,0,1,7.28238-4.84271,22.673,22.673,0,0,1,8.62933-1.67516,18.63427,18.63427,0,0,1,8.44763,1.85722,23.86228,23.86228,0,0,1,6.26292,4.4057l-6.55414,8.01062a18.95694,18.95694,0,0,0-3.60492-2.51221,8.96345,8.96345,0,0,0-4.25991-.98319,8.62313,8.62313,0,0,0-3.969.94657,10.15083,10.15083,0,0,0-3.27707,2.69462,13.33468,13.33468,0,0,0-2.25761,4.29653,18.38121,18.38121,0,0,0-.8374,5.753q0,6.70082,2.80379,10.26822a8.94019,8.94019,0,0,0,7.39154,3.56829,9.89908,9.89908,0,0,0,4.91561-1.20152,14.52877,14.52877,0,0,0,3.67746-2.87668l6.55414,7.86518a19.99837,19.99837,0,0,1-7.02742,5.2431A20.99435,20.99435,0,0,1,616.69307,193.857Z"/><path class="cls-2" d="M655.87283,193.857a23.28654,23.28654,0,0,1-8.99381-1.67516,19.0809,19.0809,0,0,1-6.91826-4.84271,22.23148,22.23148,0,0,1-4.47859-7.79229A31.79111,31.79111,0,0,1,633.8799,169.097a31.15034,31.15034,0,0,1,1.60227-10.37739,21.5761,21.5761,0,0,1,4.47859-7.6465,18.74209,18.74209,0,0,1,6.91826-4.69728,25.94029,25.94029,0,0,1,17.951,0,18.5034,18.5034,0,0,1,6.95488,4.73355,22.04957,22.04957,0,0,1,4.47859,7.6465A30.86768,30.86768,0,0,1,677.8654,169.097a31.82876,31.82876,0,0,1-1.60191,10.44993,22.26984,22.26984,0,0,1-4.47859,7.79229,19.02887,19.02887,0,0,1-6.95488,4.84271A23.37065,23.37065,0,0,1,655.87283,193.857Zm0-10.77813a7.63108,7.63108,0,0,0,6.7362-3.75035q2.43913-3.74964,2.43967-10.2316,0-6.48107-2.43967-10.01327a8.18958,8.18958,0,0,0-13.4724,0q-2.44073,3.53309-2.43967,10.01327,0,6.48213,2.43967,10.2316A7.62825,7.62825,0,0,0,655.87283,183.07891Z"/><path class="cls-2" d="M686.31231,192.983V145.64756h17.91437a35.16146,35.16146,0,0,1,7.24611.72824,16.88871,16.88871,0,0,1,6.04423,2.47594,12.49623,12.49623,0,0,1,4.11483,4.69728,15.964,15.964,0,0,1,1.529,7.39154,15.78512,15.78512,0,0,1-2.07519,8.44763,14.63762,14.63762,0,0,1-5.5713,5.2431L725.78259,192.983h-13.982l-8.15641-15.87544h-4.80644V192.983Zm12.52548-25.77955H703.353q7.57289,0,7.5736-6.26292,0-3.05839-1.92976-4.22364a11.067,11.067,0,0,0-5.64384-1.16525h-4.51522Z"/><path class="cls-2" d="M732.19023,192.983V145.64756h12.8167l10.48691,21.1189,4.51486,10.63234h.29122q-.21815-1.893-.50955-4.1511-.29176-2.25619-.50991-4.62438-.21815-2.36553-.40039-4.73355-.18295-2.36553-.18206-4.55149V145.64756h11.943V192.983H757.824l-10.48655-21.19179-4.51522-10.55945H742.531q.43684,4.07927,1.01946,8.88464a76.372,76.372,0,0,1,.5828,9.17587V192.983Z"/><path class="cls-2" d="M786.95385,175.21408a10.50631,10.50631,0,0,1,.14543-4.29653,13.56208,13.56208,0,0,1,1.4931-3.60492,18.47845,18.47845,0,0,1,2.25725-3.02212q1.2737-1.38251,2.36677-2.62173a23.64771,23.64771,0,0,0,1.85722-2.36677,4.052,4.052,0,0,0,.76451-2.29388,3.1744,3.1744,0,0,0-1.20152-2.80379,4.90979,4.90979,0,0,0-2.87668-.8374,5.64618,5.64618,0,0,0-3.20418.87367,24.569,24.569,0,0,0-2.76716,2.18471l-6.84536-6.26256a21.55915,21.55915,0,0,1,6.37208-4.95223,17.31867,17.31867,0,0,1,8.04689-1.89349,20.90934,20.90934,0,0,1,5.60757.72824,13.09676,13.09676,0,0,1,4.58776,2.25761,10.53831,10.53831,0,0,1,3.095,3.969,13.88686,13.88686,0,0,1,1.12863,5.86217,9.094,9.094,0,0,1-.80078,3.89614,16.75214,16.75214,0,0,1-1.93011,3.16791,26.55231,26.55231,0,0,1-2.47594,2.76716,27.80866,27.80866,0,0,0-2.43967,2.69462,13.33173,13.33173,0,0,0-1.784,2.98585,6.91994,6.91994,0,0,0-.47328,3.56829Zm5.38889,18.643a6.84869,6.84869,0,0,1-5.24345-2.18471,8.14137,8.14137,0,0,1,0-10.77813,7.38425,7.38425,0,0,1,10.48655,0,8.1403,8.1403,0,0,1,0,10.77813A6.85163,6.85163,0,0,1,792.34274,193.857Z"/></g></g></svg>