<svg xmlns="http://www.w3.org/2000/svg" viewBox="0 0 511.36451 482.11364"><defs><style>.cls-1{fill:#fdfcec;}.cls-2{fill:#ede6c4;}.cls-3{fill:#fe6556;}.cls-4{fill:#fee06b;}.cls-5{fill:#fee169;}.cls-6{fill:#f6544c;}.cls-7{fill:#73b452;}.cls-8{fill:#43aec8;}.cls-9{fill:#fee990;}.cls-10{fill:#e1dbbc;}.cls-11{fill:#3aa6b6;}.cls-12{fill:#fcfcfc;}</style></defs><title>unicorn logo</title><g id="Layer_2" data-name="Layer 2"><g id="Layer_3" data-name="Layer 3"><path class="cls-1" d="M239.85264,270.69351c-5.643-11.70424-9.11527-27.31645-15.88061-41.34852-6.14951,12.98108-11.49677,27.13573-16.24595,37.16089,6.18415,2.83711-35.14329-16.12886-40.12065-18.302-32.61859-14.24136-35.403-19.29335-66.95581-35.76589,7.4-9.10312,8.85794-17.41485,16.258-26.51795-.62763-.65137,1.98625-1.93038,1.35862-2.58174,4.75759-2.30492,14.80728-6.21229,20.90352-9.16575,17.15322,25.51395,71.86727,29.06,73.08424,29.068,3.46058,6.47037,11.41376,25.46842,11.41376,25.46842,17.60268-38.65544,34.00283-74.67007,50.403-110.6847,5.10359,5.95032,7.72792,12.64248,11.70421,19.20475,26.749,44.14523,7.0356,97.64327-29.74191,122.9426C252.99955,262.25831,243.67577,269.70193,239.85264,270.69351Z"/><path class="cls-2" d="M333.42587,193.11936c81.97888,200.75056-98.5302,288.99428-101.24252,288.99428-15.36433-55.40093-30.72864-110.80182-46.98823-169.4309-36.4492,28.998-70.25258,55.891-104.92212,83.47312-26.895-22.05439-51.24815-42.02444-77.63178-63.65954,12.42732-18.42091,24.57122-35.97978,36.24645-53.84489C52.086,258.45565,64.86347,237.9848,77.82394,217.63357q5.28737-.42444,10.57473-.8489c1.86076,1.83212,4.10235,3.48554,5.48923,5.54453,21.99332,32.65159,51.27957,61.01261,96.3353,60.94842,1.55645-.00223,3.1157,1.95955,5.5295,3.5808L188.78188,305.305c1.3738.901,1.09884.5298,2.47262,1.43082l24.68666-24.12156,8.63584-6.61971,16.29567-5.8957c10.40043,19.24589,20.80087,38.49175,31.41384,58.13089,4.37092-.85344,8.08265-.63821,10.68808-2.23174,27.04654-16.54228,42.79336-40.70565,51.32746-71.27383C339.46226,236.241,332.471,210.90166,333.42587,193.11936Z"/><path class="cls-3" d="M511.36451,119.862c-7.94232,13.11553-16.8855,31.76239-26.724,43.25464-13.40526,15.65856-27.79538,31.48-44.68187,42.92542-27.97973,18.96434-57.82068,12.99291-86.24338-1.71055-7.14937-3.69849-14.318-7.90765-21.13109-12.25628-13.55639-16.78307-26.4712-34.25845-40.02759-51.04154l.25391-.26944c-1.143-1.62969-5.65419-3.25938-6.79724-4.88907-5.10356-5.95031-6.839-11.90063-11.94258-17.85094-3.7685-6.02636-12.37375-8.91645-17.47653-13.43654-28.84629-25.55235-64.81493-35.073-93.95985-29.06341l-2.44416-4.86388c27.67253-13.9858,62.116-30.85852,88.20889-43.64388,38.66865,21.37164,74.98618,43.69723,113.27735,61.86251a460.55005,460.55005,0,0,0,89.349,31.139c18.21943,4.37806,38.47415.28611,57.81394.00182Z"/><path class="cls-4" d="M4.39733,1.33838C33.63174,19.337,63.0166,37.09749,92.04051,55.42941c15.79489,9.97628,31.51257,20.92305,46.971,31.43211-10.14041,8.16-20.33612,16.25272-30.3973,24.50932-4.84257,3.974-9.9672,9.06236-14.67095,13.20552-4.06987-5.28064-8.13975-11.36649-12.20962-16.64713Q49.25395,66.165,16.80534,24.37668c-4.47218-5.78-8.54777-11.86688-12.80614-17.81232Z"/><path class="cls-3" d="M81.7336,107.92923c4.06987,5.28064,8.42632,10.9332,12.49619,16.21384-1.95776,9.3786-4.555,18.33326-5.9497,27.79486-.43121,2.92541,1.63068,6.2183,2.55109,9.34293L80.36391,168.015c-6.644,1.22819-13.24259,2.86441-19.94033,3.60871-20.76023,2.307-36.08476-5.69791-50.47756-27.29817C34.023,132.11851,57.87829,120.02389,81.7336,107.92923Z"/><path class="cls-5" d="M203.6894,185.97134c-14.36528,6.50935-28.37156,7.85692-38.98653-4.0827-11.64245-13.09532-11.198-29.321-1.40292-43.84126,7.02183-3.32637,16.3368-7.74194,23.35863-11.0683,20.69308,0,28.24963,6.778,33.39064,22.22152C225.32549,165.0505,219.08941,177.35253,203.6894,185.97134Z"/><path class="cls-6" d="M80.89967,168.015c-.00148-2.71591-1.90926-21.24835,13.33012-43.87195,4.70374-4.14316,9.5418-8.79822,14.38437-12.77222,10.06118-8.25661,20.25689-16.34927,30.3973-24.50932q7.51459,16.51195,15.02921,33.02389c-2.44084,2.36455-2.42464,6.3277-4.86548,8.69224-1.24441,1.76467-4.94586,1.93075-6.19027,3.69542l.16788-.32867c-6.22842,3.57715-12.43718,7.189-18.68956,10.72378C113.44517,148.89724,91.93321,161.81334,80.89967,168.015Z"/><path class="cls-7" d="M162.6343,75.52431c37.98122-10.73817,81.61415,3.95113,111.43639,42.5-16.40015,36.01463-32.8003,72.02925-50.403,110.68469-5.31463-9.93695-11.41376-25.46842-11.41376-25.46842,0-.58867,24.64512-19.893,27.08429-39.02869,3.59657-28.2159-21.89267-64.7407-61.03114-56.0637Q170.4707,91.83622,162.6343,75.52431Z"/><path class="cls-8" d="M204.05759,185.37608c12.40712-7.73029,19.73068-21.46574,14.73824-37.31874-2.67357-8.48966-12.42622-20.61907-32.13726-21.07826-2.33023-6.3771-8.1327-18.24473-8.35148-18.83093,39.13847-8.677,61.635,24.713,62.81443,53.13273,1.02255,24.63919-28.86757,41.95966-28.86757,41.95966Z"/><path class="cls-1" d="M90.83118,161.28087q16.55031-9.30251,33.09629-18.61268c6.25238-3.53475,14.45014-8.33885,20.67856-11.916-2.3171,9.65174-6.48642,22.7339-9.36449,34.72228-15.43134,7.1345-36.44342,16.26559-53.59469,22.34126-1.89256-5.96835-.87259-19.54985-.82439-20.09572Z"/><path class="cls-8" d="M86.04159,185.92006c.105.62053,3.751,27.59226,3.751,27.59226q-.64117,1.65993-1.3939,3.27236l-10.01426.8039c-.04806.00386-12.93454.76916-12.96156.72923,0,0,.22778-23.01876,0-23.66259Z"/><path class="cls-9" d="M4.39733,1.33838l-.39812,5.226C2.84772,4.67977,1.15149,1.88459,0,0Z"/><path class="cls-5" d="M274.07069,118.02425c13.55636,16.78309,45.79879,58.312,59.35518,75.09511.29386,3.28144,6.03639,43.12159.87618,61.60482-8.5341,30.56818-24.28092,54.73155-51.32746,71.27383-2.60543,1.59353-9.73245,5.7693-9.73245,5.7693-10.613-19.63914-21.969-42.42256-32.36947-61.66845,0,0,7.68325-5.38647,10.671-7.53813,34.49045-24.83892,53.59156-70.99194,41.5216-107.56589C287.16662,137.121,274.07069,118.02425,274.07069,118.02425Z"/><path class="cls-10" d="M90.21345,213.51232q5.42853-.53716,10.85706-1.07431c31.55279,16.47253,62.99615,33.64233,95.61895,47.87389,2.07529.90534,11.0366,6.194,11.0366,6.194-2.70828,4.50141-4.99571,9.0028-9.27081,16.1084,8.75887,0,21.36806-4.90616,25.942-4.90616-7.67929,8.46463-38.98351,35.13552-38.78128,34.97463,2.2756-6.02181,4.07209-28.38314,2.51564-28.3809-45.05573.06419-80.94365-28.27632-101.1992-67.39946C86.93244,216.90238,89.786,214.61894,90.21345,213.51232Z"/><path class="cls-3" d="M207.726,266.50586s15.76-37.41246,15.94166-37.79691c6.76535,14.03206,11.75778,29.76591,17.4008,41.47015,0,0-11.23934,5.56377-16.67123,7.529C218.78028,274.54523,213.343,269.66877,207.726,266.50586Z"/><path class="cls-4" d="M207.726,266.50586c5.617,3.16291,11.05424,8.03937,16.67123,11.20225-2.87861,2.20657-27.50677,6.59373-36.26564,6.59373C188.13164,284.30184,205.01777,271.00728,207.726,266.50586Z"/><path class="cls-5" d="M292.8105,140.76428q-1.71457-2.44454-3.42911-4.88907Q291.096,138.31974,292.8105,140.76428Z"/><path class="cls-1" d="M142.44918,132.27307c-.23318.33059,1.6757-2.3764,3.73322-5.294C147.4268,125.21449,143.69358,130.50839,142.44918,132.27307Z"/><path class="cls-11" d="M154.04067,119.88542c3.57582,5.791,6.21923,12.37093,9.795,18.162-8.8384,13.81877-10.09758,28.65113.28058,41.316,8.27723,10.101,23.80288,13.756,40.47706,6.0127l8.19636,17.86445c-37.59035,16.94784-63.96525-4.56361-73.77825-28.13267-6.09623,2.95345-15.52528,6.72792-20.28286,9.03284l-2.88093,17.70489L101.18539,212.438l-14.13807,4.46439-5.40048-29.08665c16.81591-7.77464,38.27823-18.64391,53.70958-25.77841-1.40292-17.04548,7.79638-30.0929,7.79638-30.0929l-.16788.32868C144.22933,130.50842,151.59983,122.25,154.04067,119.88542Z"/><polygon class="cls-12" points="163.3 138.047 187.711 126.979 155.958 60.91 131.08 74.565 163.3 138.047"/></g></g></svg>